<?xml version="1.0" encoding="UTF-8"?>
<svg width="36px" height="25px" viewBox="0 0 36 25" version="1.1" xmlns="http://www.w3.org/2000/svg" xmlns:xlink="http://www.w3.org/1999/xlink">
    <!-- Generator: Sketch 51.2 (57519) - http://www.bohemiancoding.com/sketch -->
    <title>Group 6</title>
    <desc>Created with Sketch.</desc>
    <defs>
        <polygon id="path-1" points="2.19106047e-05 0.0222794118 35.7142857 0.0222794118 35.7142857 24.9999706 2.19106047e-05 24.9999706"></polygon>
    </defs>
    <g id="PC" stroke="none" stroke-width="1" fill="none" fill-rule="evenodd">
        <g id="CONTACT" transform="translate(-200.000000, -570.000000)">
            <g id="Group-6" transform="translate(200.000000, 570.000000)">
                <g id="Group-3">
                    <mask id="mask-2" fill="white">
                        <use xlink:href="#path-1"></use>
                    </mask>
                    <g id="Clip-2"></g>
                    <path d="M7.06823693,5.32438235 C10.1663234,8.44430882 13.3697999,11.6704853 16.5238314,14.8402647 C16.9264753,15.2448971 17.4328294,15.4677647 17.9495545,15.4678382 C18.4727797,15.4678382 18.9849036,15.2404853 19.3914914,14.8277647 C23.2804777,10.8800441 27.1677841,6.93070588 31.0550906,2.98136765 L31.7368755,2.28864706 C23.2503871,2.32202941 14.6245472,2.361 6.28113497,2.39864706 L4.17223926,2.40813235 L7.06823693,5.32438235 Z M33.6249854,21.2000441 C33.6417105,21.0858529 33.6525928,20.9743824 33.6528119,20.8649706 C33.6586547,17.7654853 33.659385,14.6140147 33.6601154,11.5662941 C33.6606266,9.16592647 33.6611379,6.76563235 33.6640593,4.36526471 C33.6644245,4.09585294 33.6154908,3.85232353 33.5156515,3.62960294 L24.8441645,12.35975 L33.6249854,21.2000441 Z M2.18808793,3.66695588 C2.146896,3.83761765 2.12790681,4.04158824 2.12783377,4.29283824 L2.12776074,4.56945588 C2.12578878,9.97180882 2.12381683,15.5580588 2.13418785,21.0521029 C2.13433392,21.1426176 2.14762635,21.2391618 2.16793018,21.3432794 L10.9003287,12.4426176 L2.18808793,3.66695588 Z M3.75038709,22.9956324 C3.92837423,23.0355588 4.09095092,23.0643824 4.24695443,23.0655588 C7.9656953,23.0935735 11.7471005,23.1101176 15.4039804,23.1262206 C16.5268989,23.1311471 17.6498174,23.1360735 18.7727359,23.1413676 C23.0554557,23.1613676 27.3381025,23.1820294 31.6208224,23.2040882 L31.6371823,23.2040882 C31.838979,23.2040882 32.0113424,23.1848235 32.159385,23.1448971 L23.2167178,14.1378382 L22.706785,14.6518824 C22.1340418,15.2293088 21.5532647,15.8148235 20.9714651,16.3993088 C20.132362,17.2423235 19.0818945,17.7065882 18.0136065,17.7065882 C16.9400599,17.7065882 15.8827271,17.2382059 15.0363935,16.3876912 C14.6195077,15.9687941 14.2031332,15.5493824 13.7868317,15.1299706 C13.4164695,14.7568088 13.0461803,14.3837206 12.6753067,14.0109265 L3.75038709,22.9956324 Z M31.6250584,24.9999706 C31.5609334,24.9999706 31.4965892,24.9984265 31.4317339,24.9953382 C31.0686751,24.9779118 30.6804923,24.9698235 30.2099985,24.9698235 C29.8715527,24.9698235 29.5260225,24.9740147 29.1919588,24.9781324 C28.855631,24.98225 28.5079097,24.9865147 28.1649357,24.9865147 L15.6958297,24.9869559 C11.8229842,24.9869559 7.95072305,24.9865882 4.07780456,24.9851176 C2.08985539,24.9843824 0.521494303,23.7235735 0.0802147239,21.7721029 C0.0756134969,21.761 0.0696245983,21.7502647 0.0640739118,21.7393088 C0.0526803973,21.7167353 0.0414329535,21.6940882 0.0313540754,21.6712206 L2.19106047e-05,21.6000441 L2.19106047e-05,3.53725 L0.0101738241,3.49475 C0.162379492,2.85938235 0.36607508,2.19254412 0.822399942,1.62011765 C1.67946976,0.544970588 2.81663015,0.02225 4.29888256,0.02225 C9.51755039,0.0267352941 14.6439746,0.02725 18.9710269,0.02725 L31.6417105,0.0268823529 C31.7937701,0.0269558824 31.9322451,0.0309264706 32.0650964,0.0390882353 C33.6046085,0.133132353 35.0193032,1.22357353 35.5054265,2.69063235 C35.5615907,2.86011765 35.6043894,3.02989706 35.6457274,3.19416176 C35.6639863,3.26673529 35.6822451,3.33930882 35.7016725,3.41144118 L35.7143076,3.45857353 L35.7143076,4.11526471 L35.7121896,4.13482353 C35.7065659,4.18776471 35.6994814,4.24070588 35.6922509,4.29364706 C35.6791776,4.38960294 35.6668346,4.48011765 35.6668346,4.56077941 C35.6661043,6.02629412 35.6631098,7.49180882 35.6600424,8.95732353 C35.6517894,12.8142353 35.6433903,16.8024706 35.6815148,20.7235 C35.6929813,21.9014412 35.262657,22.9941618 34.4697853,23.8002647 C33.708903,24.5738676 32.6986781,24.9998971 31.6250584,24.9999706 Z" id="Fill-1" fill="#141414" mask="url(#mask-2)"></path>
                </g>
                <path d="M11.2934685,12.5524309 C8.17166594,9.40469273 5.07126056,6.27851846 1.95683379,3.13836078 C1.69407891,3.49986861 1.64215597,3.94351055 1.64200992,4.39664648 C1.64003816,9.9884631 1.63777429,15.5802797 1.64836335,21.1720963 C1.64894758,21.4856926 1.76031534,21.7990681 1.83699478,22.2009806 C5.05555953,18.9170146 8.19094534,15.7179795 11.2934685,12.5524309 M33.4590119,3.14476371 C30.3543709,6.27351387 27.2523589,9.39968814 24.2047527,12.4710327 C27.3567159,15.6475473 30.531756,18.8473184 33.7378329,22.0783682 C33.7905592,21.7256184 33.8933826,21.355279 33.8941129,20.9847187 C33.9044099,15.4796728 33.8986407,9.97470049 33.9053592,4.46965458 C33.9060165,3.95381411 33.7495174,3.51422 33.4590119,3.14476371 M2.90313112,23.3282639 C3.3539332,23.4154026 3.73813371,23.5517776 4.12328359,23.5546478 C8.96496952,23.5910783 13.8068745,23.6077848 18.6486335,23.6304526 C22.9308516,23.6505446 27.2130698,23.6712253 31.4952879,23.6932307 C31.9277599,23.6955122 32.3321162,23.6194867 32.6484006,23.3633696 C29.458828,20.1474807 26.2816702,16.9441769 23.0938502,13.730128 C22.2760092,14.5549281 21.4345071,15.4054872 20.5908872,16.2538383 C18.9943482,17.8594276 16.7751722,17.8545702 15.1722798,16.24221 C14.3801446,15.4453767 13.5899082,14.6466298 12.7979922,13.8495757 C12.7068532,13.757874 12.6103101,13.6716185 12.5460455,13.6109011 C9.34427716,16.8374615 6.1717931,20.0344359 2.90313112,23.3282639 M3.32063241,2.1456126 C3.31230722,2.18469254 3.30390899,2.22377248 3.29551077,2.26277882 C3.33611436,2.30590658 3.37584161,2.34991751 3.41746759,2.39186773 C7.65893608,6.66659476 11.8983598,10.9433825 16.1436988,15.2142089 C17.1273134,16.2037188 18.5533319,16.1911338 19.5283293,15.2003727 C23.7095496,10.9516989 27.8887982,6.70118529 32.0682659,2.45074522 C32.1515179,2.36596163 32.2280512,2.27440712 32.349789,2.13943046 C32.1009094,2.09240206 31.9032956,2.02160187 31.7059008,2.02233784 C22.244096,2.05957786 12.7824372,2.10292641 3.32063241,2.1456126 M0.244618395,21.6417916 L0.244618395,3.68415518 C0.393084398,3.06373356 0.58105857,2.46119598 0.986583268,1.95183204 C1.80778356,0.92059269 2.88553136,0.489094238 4.18294749,0.490198191 C13.2945829,0.497925862 22.4063643,0.494319616 31.5179996,0.494834794 C31.651714,0.494834794 31.7857204,0.498146653 31.9192157,0.506315906 C33.3138321,0.591688275 34.5937946,1.576488 35.03503,2.90947452 C35.1109791,3.13894956 35.1623178,3.37666745 35.2250489,3.61055831 L35.2250489,4.19933327 C35.2086176,4.35447547 35.1777268,4.50961768 35.1776537,4.66475988 C35.1751708,10.0585273 35.1398982,15.4527363 35.1923324,20.8459886 C35.2146059,23.1363232 33.4253459,24.8515719 31.3254977,24.7506706 C30.2332173,24.6981224 29.1363362,24.7413974 28.0416459,24.7413974 C20.0133815,24.7413974 11.9852631,24.7430165 3.95699874,24.739999 C2.12969116,24.7393367 0.714626852,23.5898271 0.31406806,21.8030423 C0.301434209,21.7468879 0.268206452,21.6954437 0.244618395,21.6417916" id="Fill-4" fill="#141414"></path>
            </g>
        </g>
    </g>
</svg>