<?xml version="1.0" encoding="UTF-8"?>
<svg width="37px" height="37px" viewBox="0 0 37 37" version="1.1" xmlns="http://www.w3.org/2000/svg" xmlns:xlink="http://www.w3.org/1999/xlink">
    <!-- Generator: Sketch 51.2 (57519) - http://www.bohemiancoding.com/sketch -->
    <title>Group 3</title>
    <desc>Created with Sketch.</desc>
    <defs>
        <polygon id="path-1" points="0 0 36.93932 0 36.93932 37 0 37"></polygon>
    </defs>
    <g id="PC" stroke="none" stroke-width="1" fill="none" fill-rule="evenodd">
        <g id="CONTACT" transform="translate(-377.000000, -564.000000)">
            <g id="Group-3" transform="translate(377.000000, 564.000000)">
                <mask id="mask-2" fill="white">
                    <use xlink:href="#path-1"></use>
                </mask>
                <g id="Clip-2"></g>
                <path d="M18.484793,0 C8.276123,0 -3.7e-05,8.27616 -3.7e-05,18.48483 C-3.7e-05,26.31995 4.868423,33.01399 11.744873,35.70685 C11.577633,34.24646 11.440733,31.99464 11.805923,30.39698 C12.140773,28.95176 13.966353,21.20803 13.966353,21.20803 C13.966353,21.20803 13.418753,20.09729 13.418753,18.46966 C13.418753,15.89853 14.909483,13.98156 16.765773,13.98156 C18.347893,13.98156 19.108613,15.16815 19.108613,16.58303 C19.108613,18.16552 18.104433,20.5387 17.572003,22.74464 C17.130963,24.58539 18.499963,26.09203 20.310743,26.09203 C23.596343,26.09203 26.122333,22.62328 26.122333,17.63272 C26.122333,13.2053 22.942553,10.11728 18.393403,10.11728 C13.129413,10.11728 10.041393,14.05741 10.041393,18.13481 C10.041393,19.71693 10.649673,21.42115 11.410393,22.34911 C11.562463,22.53152 11.577633,22.69913 11.532123,22.88154 C11.395223,23.45948 11.075913,24.72229 11.014863,24.98129 C10.938643,25.31577 10.740693,25.39199 10.391043,25.22475 C8.078543,24.14435 6.633323,20.78216 6.633323,18.05896 C6.633323,12.2322 10.862423,6.87682 18.849983,6.87682 C25.255053,6.87682 30.244873,11.44077 30.244873,17.5565 C30.244873,23.9316 26.228893,29.05832 20.660393,29.05832 C18.788933,29.05832 17.024403,28.08448 16.430923,26.92823 C16.430923,26.92823 15.502593,30.45803 15.274673,31.32531 C14.863973,32.93777 13.738063,34.94613 12.977343,36.17823 C14.711903,36.71103 16.537483,37 18.454453,37 C28.662753,37 36.939283,28.72384 36.939283,18.51517 C36.969623,8.27616 28.693463,0 18.484793,0" id="Fill-1" fill="#141414" mask="url(#mask-2)"></path>
            </g>
        </g>
    </g>
</svg>