<?xml version="1.0" encoding="UTF-8"?>
<svg width="35px" height="35px" viewBox="0 0 35 35" version="1.1" xmlns="http://www.w3.org/2000/svg" xmlns:xlink="http://www.w3.org/1999/xlink">
    <!-- Generator: Sketch 51.2 (57519) - http://www.bohemiancoding.com/sketch -->
    <title>Group 8</title>
    <desc>Created with Sketch.</desc>
    <defs>
        <polygon id="path-1" points="5.55555556e-05 0.0368518519 34.9632407 0.0368518519 34.9632407 34.9999722 5.55555556e-05 34.9999722"></polygon>
    </defs>
    <g id="PC" stroke="none" stroke-width="1" fill="none" fill-rule="evenodd">
        <g id="CONTACT" transform="translate(-312.000000, -565.000000)">
            <g id="Group-8" transform="translate(312.000000, 565.000000)">
                <g id="Group-3">
                    <mask id="mask-2" fill="white">
                        <use xlink:href="#path-1"></use>
                    </mask>
                    <g id="Clip-2"></g>
                    <path d="M10.2223704,3.29608333 C6.38283333,3.29608333 3.25931481,6.41969444 3.25931481,10.2591389 L3.25931481,24.77775 C3.25931481,28.6170093 6.38283333,31.740713 10.2223704,31.740713 L24.7409815,31.740713 C28.5802407,31.740713 31.7039444,28.6170093 31.7039444,24.77775 L31.7039444,10.2591389 C31.7039444,6.41969444 28.5802407,3.29608333 24.7409815,3.29608333 L10.2223704,3.29608333 Z M24.7409815,34.9999722 L10.2223704,34.9999722 C4.5857037,34.9999722 5.55555556e-05,30.4143241 5.55555556e-05,24.77775 L5.55555556e-05,10.2591389 C5.55555556e-05,4.62247222 4.5857037,0.0368240741 10.2223704,0.0368240741 L24.7409815,0.0368240741 C30.3776481,0.0368240741 34.9632963,4.62247222 34.9632963,10.2591389 L34.9632963,24.77775 C34.9632963,30.4143241 30.3776481,34.9999722 24.7409815,34.9999722 Z" id="Fill-1" fill="#141414" mask="url(#mask-2)"></path>
                </g>
                <path d="M30,8.5 C30,9.88084916 28.8808729,11 27.4999469,11 C26.1192333,11 25,9.88084916 25,8.5 C25,7.11915084 26.1192333,6 27.4999469,6 C28.8808729,6 30,7.11915084 30,8.5" id="Fill-4" fill="#141414"></path>
                <path d="M17,11.2458518 C13.8271637,11.2458518 11.2459606,13.827226 11.2459606,17.0001383 C11.2459606,20.1729584 13.8271637,22.7541482 17,22.7541482 C20.1728363,22.7541482 22.7540394,20.1729584 22.7540394,17.0001383 C22.7540394,13.827226 20.1728363,11.2458518 17,11.2458518 M17,26 C12.0374176,26 8,21.962603 8,17.0001383 C8,12.037397 12.0374176,8 17,8 C21.9624901,8 26,12.037397 26,17.0001383 C26,21.962603 21.9624901,26 17,26" id="Fill-6" fill="#141414"></path>
            </g>
        </g>
    </g>
</svg>