<?xml version="1.0" encoding="UTF-8"?>
<svg width="18px" height="38px" viewBox="0 0 18 38" version="1.1" xmlns="http://www.w3.org/2000/svg" xmlns:xlink="http://www.w3.org/1999/xlink">
    <!-- Generator: Sketch 51.2 (57519) - http://www.bohemiancoding.com/sketch -->
    <title>Fill 1</title>
    <desc>Created with Sketch.</desc>
    <defs></defs>
    <g id="PC" stroke="none" stroke-width="1" fill="none" fill-rule="evenodd">
        <g id="CONTACT" transform="translate(-264.000000, -562.000000)" fill="#141414">
            <g id="Group-3" transform="translate(264.000000, 562.000000)">
                <path d="M17.627489,0.0109907692 L17.627489,6.03428308 C17.627489,6.03428308 13.1592774,5.59172923 12.0401652,7.29354462 C11.428831,8.22308308 11.7918658,10.9462215 11.7377342,12.90176 L17.663969,12.90176 C17.1632516,15.1881908 16.8049239,16.7380062 16.4371819,18.7169292 L11.7047845,18.7169292 L11.7047845,37.4298831 L3.49443097,37.4298831 C3.49560774,31.6608985 3.49384258,24.9302215 3.49443097,18.7900062 L0,18.7900062 L0,12.90176 L3.45559742,12.90176 C3.63270194,8.59723692 3.69918968,4.33129846 5.85150968,2.15945231 C8.27095742,-0.281901538 10.5786116,0.0109907692 17.627489,0.0109907692" id="Fill-1"></path>
            </g>
        </g>
    </g>
</svg>