<svg id="レイヤー_1" data-name="レイヤー 1" xmlns="http://www.w3.org/2000/svg" viewBox="0 0 78.89 23.67"><defs><style>.cls-1{fill:blue;}</style></defs><title>title_price@1</title><path class="cls-1" d="M3.32,1.94H0V0H5.29V22h-2Z"/><path class="cls-1" d="M10,18.62H8.31V13.33H10V11.66h1.68V10.28H10V8.61H8.31V3.32H10V1.65h1.68V0H17V1.65h1.64V3.32H20.3V8.61H18.62v1.67H17v1.38h1.64v1.67H20.3v5.29H18.62V20.3H17V22H11.69V20.3H10ZM16.68,10V8.34h1.67V3.62H16.68V1.94H12V3.62H10.31V8.34H12V10ZM12,18.35V20h4.72V18.35h1.67V13.63H16.68V12H12v1.67H10.31v4.72Z"/><path class="cls-1" d="M26,1.94H22.69V0H28V22H26Z"/><path class="cls-1" d="M33.15,21.67V20.3H31.48V16.68H35.1V22H33.42v1.67H31.48v-2Z"/><path class="cls-1" d="M40.13,15h1.7V13.33H43.5V11.66h3.32V10h1.67V8.34h1.68V3.62H48.49V1.94H43.77V3.62H42.12v5h-2V3.32h1.7V1.65H43.5V0h5.29V1.65h1.65V3.32h1.67V8.61H50.44v1.67H48.79V12H47.12v1.67H43.77V15.3H42.12V20h10v2h-12Z"/><path class="cls-1" d="M53.52,15h1.7V13.33h1.67V11.66h3.32V10h1.67V8.34h1.68V3.62H61.88V1.94H57.16V3.62H55.51v5h-2V3.32h1.7V1.65h1.67V0h5.29V1.65h1.65V3.32H65.5V8.61H63.83v1.67H62.18V12H60.51v1.67H57.16V15.3H55.51V20h10v2h-12Z"/><path class="cls-1" d="M68.6,18.62H66.9V16.68h2v1.67h1.65V20h4.72V18.35H77V13.63H75.57V15.3H70.28V13.63H68.6V12H66.9V3.32h1.7V1.65h1.68V0h5.29V1.65h1.65V3.32h1.67v15.3H77.22V20.3H75.57V22H70.28V20.3H68.6Zm6.67-5.29V11.66H77v-8H75.27V1.94H70.55V3.62H68.9v8h1.65v1.67Z"/></svg>