<svg id="レイヤー_1" data-name="レイヤー 1" xmlns="http://www.w3.org/2000/svg" viewBox="0 0 77.26 22.91"><defs><style>.cls-1{fill:blue;}</style></defs><title>title_works@1</title><path class="cls-1" d="M1.91,17.23H0V5.65H2.25V16.92H3.8V11.27H5.65V5.65H7.87v5.62H9.75v5.65H11.3V5.65h2.19V17.23H11.61v5.68H9.42V17.23H7.53V11.61H6v5.62H4.1v5.68H1.91Z"/><path class="cls-1" d="M18.17,19.11H16.26V9.39h1.91V7.53h1.88V5.65h6V7.53h1.85V9.39h1.89v9.72H27.86V21H26v1.92h-6V21H18.17Zm2.19-.3v1.85h5.31V18.81h1.89V9.72H25.67V7.84H20.36V9.72H18.5v9.09Z"/><path class="cls-1" d="M34.15,5.65h2.19V7.53h1.55V5.65h6V7.84H38.22V9.72H36.34V22.91H34.15Z"/><path class="cls-1" d="M46.91,0h2.25V13.15h1.55V11.27h1.85V9.39h3.77V7.53h1.88V5.65H60.4V7.84H58.52V9.72H56.66v1.89H52.9v1.88H51V15H52.9v1.88h3.76v1.89h1.86v1.85H60.4v2.25H58.21V21H56.33V19.11H52.56V17.23H50.71V15.37H49.16v7.54H46.91Z"/><path class="cls-1" d="M63.77,16.92H66v3.74h9V15.37H65.69V13.49H63.77v-6h1.92V5.65h9.69V7.53h1.88v4.08H75.07V7.84H66v5.31h9.36V15h1.88V21H75.38v1.92H65.69V21H63.77Z"/></svg>