<svg id="レイヤー_1" data-name="レイヤー 1" xmlns="http://www.w3.org/2000/svg" viewBox="0 0 106.78 22.91"><defs><style>.cls-1{fill:blue;}</style></defs><title>tite_contact@1</title><path class="cls-1" d="M1.91,19.11H0V9.39H1.91V7.53H3.8V5.65h6V7.53h1.86V9.39h1.88v2.22H11.3V9.72H9.42V7.84H4.1V9.72H2.25v9.09H4.1v1.85H9.42V18.81H11.3V16.92h2.19v2.19H11.61V21H9.75v1.92H3.8V21H1.91Z"/><path class="cls-1" d="M18.17,19.11H16.26V9.39h1.91V7.53h1.88V5.65h6V7.53h1.85V9.39h1.89v9.72H27.86V21H26v1.92h-6V21H18.17Zm2.19-.3v1.85h5.31V18.81h1.89V9.72H25.67V7.84H20.36V9.72H18.5v9.09Z"/><path class="cls-1" d="M32.64,5.65h2.25V7.53h1.55V5.65h6V7.53h1.85V9.39h1.89V22.91H43.94V9.72H42.06V7.84H36.74V9.72H34.89V22.91H32.64Z"/><path class="cls-1" d="M52.44,7.84H48.65V5.65h3.79V0h2.19V5.65h5.62V7.84H54.63V20.66h5.62v2.25h-6V21H52.44Z"/><path class="cls-1" d="M63.47,15h1.92V13.15h7.5V7.84H65.72v3.77H63.47V7.53h1.92V5.65h7.84V7.53h1.85V20.66H77v2.25H74.78V21H71.34v1.92h-6V21H63.47ZM71,20.66V18.81h1.88V15.37H65.72v5.29Z"/><path class="cls-1" d="M81.08,19.11H79.17V9.39h1.91V7.53H83V5.65h6V7.53h1.85V9.39h1.89v2.22H90.47V9.72H88.58V7.84H83.27V9.72H81.41v9.09h1.86v1.85h5.31V18.81h1.89V16.92h2.19v2.19H90.77V21H88.92v1.92H83V21H81.08Z"/><path class="cls-1" d="M99,7.84h-3.8V5.65H99V0h2.19V5.65h5.62V7.84h-5.62V20.66h5.62v2.25h-6V21H99Z"/></svg>