<svg id="レイヤー_1" data-name="レイヤー 1" xmlns="http://www.w3.org/2000/svg" viewBox="0 0 114.17 24.79"><defs><style>.cls-1{fill:blue;}</style></defs><title>title_personal@1</title><path class="cls-1" d="M0,5.65H2.25V7.53H3.8V5.65h6V7.53h1.86V9.39h1.88v7.84H11.61v1.88H9.75V21H3.8V19.11H2.25v5.68H0ZM9.42,18.81V16.92H11.3V9.72H9.42V7.84H4.1V9.72H2.25v7.2H4.1v1.89Z"/><path class="cls-1" d="M18.17,19.11H16.26V9.39h1.91V7.53h1.88V5.65h6V7.53h1.85V9.39h1.89v6H18.5v3.44h1.86v1.85h5.31V18.81h1.89V16.92h2.19v2.19H27.86V21H26v1.92h-6V21H18.17Zm9.39-6V9.72H25.67V7.84H20.36V9.72H18.5v3.43Z"/><path class="cls-1" d="M33.53,5.65h2.18V7.53h1.55V5.65h6V7.84H37.6V9.72H35.71V22.91H33.53Z"/><path class="cls-1" d="M45.68,16.92h2.25v3.74h9V15.37H47.59V13.49H45.68v-6h1.91V5.65h9.69V7.53h1.89v4.08H57V7.84h-9v5.31h9.35V15h1.89V21H57.28v1.92H47.59V21H45.68Z"/><path class="cls-1" d="M64,19.11H62.08V9.39H64V7.53h1.88V5.65h6V7.53h1.86V9.39h1.88v9.72H73.69V21H71.83v1.92h-6V21H64Zm2.18-.3v1.85H71.5V18.81h1.88V9.72H71.5V7.84H66.18V9.72H64.33v9.09Z"/><path class="cls-1" d="M78.46,5.65h2.25V7.53h1.55V5.65h6V7.53h1.85V9.39H92V22.91H89.77V9.72H87.88V7.84H82.57V9.72H80.71V22.91H78.46Z"/><path class="cls-1" d="M94.82,15h1.91V13.15h7.51V7.84H97.07v3.77H94.82V7.53h1.91V5.65h7.84V7.53h1.85V20.66h1.89v2.25h-2.19V21h-3.43v1.92h-6V21H94.82Zm7.53,5.62V18.81h1.89V15.37H97.07v5.29Z"/><path class="cls-1" d="M112,0h2.22V22.91H112Z"/></svg>