<svg id="レイヤー_1" data-name="レイヤー 1" xmlns="http://www.w3.org/2000/svg" viewBox="0 0 76.73 22.91"><defs><style>.cls-1{fill:blue;}</style></defs><title>title_about@1</title><path class="cls-1" d="M0,15H1.91V13.15H9.42V7.84H2.25v3.77H0V7.53H1.91V5.65H9.75V7.53h1.86V20.66h1.88v2.25H11.3V21H7.87v1.92h-6V21H0Zm7.53,5.62V18.81H9.42V15.37H2.25v5.29Z"/><path class="cls-1" d="M16,0H18.2V7.53h1.55V5.65H25.7V7.53h1.86V9.39h1.88v9.72H27.56V21H25.7v1.92H19.75V21H18.2v1.92H16Zm4.1,18.81v1.85h5.32V18.81h1.88V9.72H25.37V7.84H20.05V9.72H18.2v9.09Z"/><path class="cls-1" d="M34.12,19.11H32.21V9.39h1.91V7.53H36V5.65h6V7.53h1.85V9.39H45.7v9.72H43.81V21H42v1.92H36V21H34.12Zm2.19-.3v1.85h5.31V18.81h1.89V9.72H41.62V7.84H36.31V9.72H34.46v9.09Z"/><path class="cls-1" d="M50.45,19.11H48.53V5.65h2.25V18.81h1.85v1.85H58V18.81h1.88V5.65H62V22.91H59.83V21H58.29v1.92h-6V21H50.45Z"/><path class="cls-1" d="M68.92,7.84h-3.8V5.65h3.8V0h2.19V5.65h5.62V7.84H71.11V20.66h5.62v2.25h-6V21H68.92Z"/></svg>