<svg id="レイヤー_1" data-name="レイヤー 1" xmlns="http://www.w3.org/2000/svg" viewBox="0 0 281 104.2"><defs><style>.cls-1{fill:blue;}</style></defs><title>アートボード 7@1</title><rect class="cls-1" width="8" height="81"/><rect class="cls-1" x="36" width="4" height="81"/><rect class="cls-1" x="29.99" width="1.01" height="81" transform="translate(60.99 81) rotate(180)"/><rect class="cls-1" x="41.99" width="1.01" height="81" transform="translate(84.99 81) rotate(180)"/><rect class="cls-1" x="12" width="2" height="81"/><rect class="cls-1" x="15" width="2" height="81"/><rect class="cls-1" x="18" width="2" height="81"/><rect class="cls-1" x="63.99" width="1.01" height="81" transform="translate(128.99 81) rotate(180)"/><rect class="cls-1" x="67.99" width="1.01" height="81" transform="translate(136.99 81) rotate(180)"/><rect class="cls-1" x="77" width="8" height="81"/><rect class="cls-1" x="70.99" width="1.01" height="81" transform="translate(142.99 81) rotate(180)"/><rect class="cls-1" x="85.99" width="1.01" height="81" transform="translate(172.99 81) rotate(180)"/><rect class="cls-1" x="46" width="2" height="81"/><rect class="cls-1" x="49" width="2" height="81"/><rect class="cls-1" x="52" width="2" height="81"/><rect class="cls-1" x="90" width="2" height="81"/><rect class="cls-1" x="93" width="2" height="81"/><rect class="cls-1" x="96" width="2" height="81"/><rect class="cls-1" x="102.99" width="1.01" height="81" transform="translate(206.99 81) rotate(180)"/><rect class="cls-1" x="122.99" width="1.01" height="81" transform="translate(246.99 81) rotate(180)"/><rect class="cls-1" x="107" width="2" height="81"/><rect class="cls-1" x="110" width="2" height="81"/><rect class="cls-1" x="113" width="2" height="81"/><rect class="cls-1" x="116" width="2" height="81"/><rect class="cls-1" x="119" width="2" height="81"/><rect class="cls-1" x="133" width="6" height="81"/><rect class="cls-1" x="141.99" width="1.01" height="81" transform="translate(284.99 81) rotate(180)"/><rect class="cls-1" x="127.99" width="1.01" height="81" transform="translate(256.99 81) rotate(180)"/><rect class="cls-1" x="146" width="2" height="81"/><rect class="cls-1" x="149" width="2" height="81"/><rect class="cls-1" x="152" width="2" height="81"/><rect class="cls-1" x="158.99" width="1.01" height="81" transform="translate(318.99 81) rotate(180)"/><rect class="cls-1" x="163" width="2" height="81"/><rect class="cls-1" x="171" width="8" height="81"/><rect class="cls-1" x="200.99" width="1.01" height="81" transform="translate(402.99 81) rotate(180)"/><rect class="cls-1" x="197.99" width="1.01" height="81" transform="translate(396.99 81) rotate(180)"/><rect class="cls-1" x="183" width="2" height="81"/><rect class="cls-1" x="186" width="2" height="81"/><rect class="cls-1" x="189" width="2" height="81"/><rect class="cls-1" x="209" width="8" height="81"/><rect class="cls-1" x="245" width="4" height="81"/><rect class="cls-1" x="238.99" width="1.01" height="81" transform="translate(478.99 81) rotate(180)"/><rect class="cls-1" x="250.99" width="1.01" height="81" transform="translate(502.99 81) rotate(180)"/><rect class="cls-1" x="221" width="2" height="81"/><rect class="cls-1" x="224" width="2" height="81"/><rect class="cls-1" x="227" width="2" height="81"/><rect class="cls-1" x="272.99" width="1.01" height="81" transform="translate(546.99 81) rotate(180)"/><rect class="cls-1" x="276.99" width="1.01" height="81" transform="translate(554.99 81) rotate(180)"/><rect class="cls-1" x="279.99" width="1.01" height="81" transform="translate(560.99 81) rotate(180)"/><rect class="cls-1" x="255" width="2" height="81"/><rect class="cls-1" x="258" width="2" height="81"/><rect class="cls-1" x="261" width="2" height="81"/><path class="cls-1" d="M8.4,92.39a2.4,2.4,0,0,0-.67-1.53,2.12,2.12,0,0,0-1.57-.59A2.54,2.54,0,0,0,5,90.53a2.62,2.62,0,0,0-.84.67,3.48,3.48,0,0,0-.55,1,7.82,7.82,0,0,0-.34,1.13,9.66,9.66,0,0,0-.19,1.18c0,.38-.07.75-.1,1.08l0,0a3.21,3.21,0,0,1,1.4-1.38,4.18,4.18,0,0,1,1.92-.45,5,5,0,0,1,2.05.4,4.45,4.45,0,0,1,1.53,1.09,4.84,4.84,0,0,1,.95,1.64,6.15,6.15,0,0,1,.33,2,5.86,5.86,0,0,1-.36,2.08,4.86,4.86,0,0,1-1,1.67,4.72,4.72,0,0,1-1.63,1.11,5.26,5.26,0,0,1-2.09.4,5.54,5.54,0,0,1-2.79-.63,4.6,4.6,0,0,1-1.71-1.71A7.53,7.53,0,0,1,.7,99.31a19.6,19.6,0,0,1-.24-3.16,14.09,14.09,0,0,1,.29-2.8,8.67,8.67,0,0,1,1-2.56,5.68,5.68,0,0,1,1.8-1.88,4.92,4.92,0,0,1,2.73-.73A5,5,0,0,1,8,88.49a4.52,4.52,0,0,1,1.44.86,4.61,4.61,0,0,1,1,1.32,4.2,4.2,0,0,1,.44,1.72ZM6,102.11a2.52,2.52,0,0,0,1.19-.27,2.79,2.79,0,0,0,.84-.72,2.88,2.88,0,0,0,.51-1,4.4,4.4,0,0,0,.16-1.2,4.27,4.27,0,0,0-.16-1.19,2.87,2.87,0,0,0-.51-1A2.45,2.45,0,0,0,7.17,96,2.52,2.52,0,0,0,6,95.75a2.65,2.65,0,0,0-1.2.26,2.51,2.51,0,0,0-.87.68,3,3,0,0,0-.53,1,4.31,4.31,0,0,0-.17,1.21,4.37,4.37,0,0,0,.17,1.21,3.3,3.3,0,0,0,.53,1,2.75,2.75,0,0,0,.87.72A2.65,2.65,0,0,0,6,102.11Z"/><path class="cls-1" d="M41.07,100.24h-2v3.65H36.71v-3.65h-6.6V97.75l6.6-9.26h2.38v9.77h2Zm-9-2h4.66V91.48h0Z"/><path class="cls-1" d="M57.66,88.18a4.49,4.49,0,0,1,2.69.76A5.2,5.2,0,0,1,62,90.88a8.63,8.63,0,0,1,.79,2.58,17.85,17.85,0,0,1,0,5.46,8.69,8.69,0,0,1-.79,2.59,5.17,5.17,0,0,1-1.63,1.93,4.42,4.42,0,0,1-2.69.76,4.47,4.47,0,0,1-2.7-.76,5.27,5.27,0,0,1-1.63-1.93,9,9,0,0,1-.79-2.59,17.85,17.85,0,0,1,0-5.46,8.92,8.92,0,0,1,.79-2.58A5.3,5.3,0,0,1,55,88.94,4.54,4.54,0,0,1,57.66,88.18Zm0,13.93a2,2,0,0,0,1.36-.47,3.16,3.16,0,0,0,.87-1.28,7.74,7.74,0,0,0,.45-1.88,18.47,18.47,0,0,0,.13-2.29,18.14,18.14,0,0,0-.13-2.27A8.07,8.07,0,0,0,59.89,92,3.09,3.09,0,0,0,59,90.75a2.2,2.2,0,0,0-2.74,0A3.28,3.28,0,0,0,55.42,92,8.07,8.07,0,0,0,55,93.92a20.27,20.27,0,0,0-.13,2.27A20.64,20.64,0,0,0,55,98.48a7.74,7.74,0,0,0,.45,1.88,3.35,3.35,0,0,0,.86,1.28A2,2,0,0,0,57.66,102.11Z"/><path class="cls-1" d="M94.36,94.87a5.1,5.1,0,0,0,1.23-.09,3.41,3.41,0,0,0,1.1-.38,2.18,2.18,0,0,0,.78-.76,2.21,2.21,0,0,0,.3-1.19,2,2,0,0,0-.68-1.58,2.47,2.47,0,0,0-1.72-.6,2.35,2.35,0,0,0-1.15.27,2.27,2.27,0,0,0-.8.71,3.18,3.18,0,0,0-.47,1,3.39,3.39,0,0,0-.13,1.15H90.31a6.36,6.36,0,0,1,.42-2.08,5.09,5.09,0,0,1,1-1.66,4.5,4.5,0,0,1,1.57-1.1,5.33,5.33,0,0,1,2.09-.4,5.94,5.94,0,0,1,1.77.27,5.34,5.34,0,0,1,1.57.77,3.85,3.85,0,0,1,1.11,1.29,4.17,4.17,0,0,1-.11,3.82A3.11,3.11,0,0,1,98.1,95.6v0A3.16,3.16,0,0,1,100.15,97a4.69,4.69,0,0,1,.3,4.51,4.5,4.5,0,0,1-1.19,1.48,5.58,5.58,0,0,1-1.74.93,6.54,6.54,0,0,1-2.09.33,6.67,6.67,0,0,1-2.34-.38,4.53,4.53,0,0,1-1.67-1.09,4.63,4.63,0,0,1-1-1.7,6.89,6.89,0,0,1-.38-2.2h2.51a3.51,3.51,0,0,0,.69,2.35,2.65,2.65,0,0,0,2.21.93,3.2,3.2,0,0,0,2.11-.71,2.54,2.54,0,0,0,.84-2A2.58,2.58,0,0,0,98,97.93a2.29,2.29,0,0,0-.92-.8,3.62,3.62,0,0,0-1.29-.34,11.81,11.81,0,0,0-1.46-.05Z"/><path class="cls-1" d="M117.41,88.18a4.54,4.54,0,0,1,2.7.76,5.3,5.3,0,0,1,1.63,1.94,8.92,8.92,0,0,1,.79,2.58,17.85,17.85,0,0,1,0,5.46,9,9,0,0,1-.79,2.59,5.27,5.27,0,0,1-1.63,1.93,4.47,4.47,0,0,1-2.7.76,4.42,4.42,0,0,1-2.69-.76,5.17,5.17,0,0,1-1.63-1.93,8.69,8.69,0,0,1-.79-2.59,17.85,17.85,0,0,1,0-5.46,8.63,8.63,0,0,1,.79-2.58,5.2,5.2,0,0,1,1.63-1.94A4.49,4.49,0,0,1,117.41,88.18Zm0,13.93a2.07,2.07,0,0,0,1.37-.47,3.25,3.25,0,0,0,.86-1.28,7.29,7.29,0,0,0,.46-1.88,20.64,20.64,0,0,0,.13-2.29,20.27,20.27,0,0,0-.13-2.27,7.59,7.59,0,0,0-.46-1.89,3.17,3.17,0,0,0-.86-1.28,2,2,0,0,0-1.37-.48,2,2,0,0,0-1.37.48,3.17,3.17,0,0,0-.86,1.28,8.07,8.07,0,0,0-.45,1.89,18.14,18.14,0,0,0-.13,2.27,18.47,18.47,0,0,0,.13,2.29,7.74,7.74,0,0,0,.45,1.88,3.25,3.25,0,0,0,.86,1.28A2,2,0,0,0,117.41,102.11Z"/><path class="cls-1" d="M136.71,103.89H126.19a6.24,6.24,0,0,1,.93-3.34,8.56,8.56,0,0,1,2.46-2.49c.5-.36,1-.72,1.56-1.06a13.3,13.3,0,0,0,1.5-1.12,5.82,5.82,0,0,0,1.12-1.28,3.06,3.06,0,0,0,.46-1.6,4.11,4.11,0,0,0-.1-.89A2.23,2.23,0,0,0,133,90.55a2.82,2.82,0,0,0-1.33-.28,2.37,2.37,0,0,0-1.24.3,2.22,2.22,0,0,0-.79.82,4.07,4.07,0,0,0-.44,1.22,8,8,0,0,0-.16,1.52h-2.51a7.8,7.8,0,0,1,.34-2.37,5.18,5.18,0,0,1,1-1.88,4.86,4.86,0,0,1,1.66-1.24,6,6,0,0,1,4.63,0,4.43,4.43,0,0,1,1.53,1.16,4.25,4.25,0,0,1,.83,1.53,5.67,5.67,0,0,1,.24,1.58,4.68,4.68,0,0,1-.29,1.67,5.3,5.3,0,0,1-.77,1.37,8,8,0,0,1-1.1,1.16c-.41.35-.83.68-1.27,1s-.88.6-1.32.88-.85.55-1.22.83a7,7,0,0,0-1,.87,2.4,2.4,0,0,0-.57,1h7.5Z"/><path class="cls-1" d="M182.51,100a2.4,2.4,0,0,0,.67,1.53,2.14,2.14,0,0,0,1.58.58,2.32,2.32,0,0,0,1.61-.54,3.5,3.5,0,0,0,.94-1.34,6.91,6.91,0,0,0,.45-1.72c.08-.6.14-1.17.19-1.68l0,0a3.43,3.43,0,0,1-1.38,1.37,4,4,0,0,1-1.94.47,5.08,5.08,0,0,1-2-.37,4.66,4.66,0,0,1-1.53-1,4.55,4.55,0,0,1-1-1.63,6.1,6.1,0,0,1-.35-2.15,5.86,5.86,0,0,1,.35-2.08,4.87,4.87,0,0,1,1-1.67,4.65,4.65,0,0,1,1.68-1.11,6,6,0,0,1,2.24-.4,5.16,5.16,0,0,1,2.68.63,4.43,4.43,0,0,1,1.66,1.72,7.64,7.64,0,0,1,.85,2.56,19.56,19.56,0,0,1,.24,3.15,14.07,14.07,0,0,1-.29,2.79,8.56,8.56,0,0,1-1,2.56,5.68,5.68,0,0,1-1.8,1.88,4.84,4.84,0,0,1-2.73.73,4.76,4.76,0,0,1-1.74-.31,4.45,4.45,0,0,1-1.44-.86,4.35,4.35,0,0,1-1-1.32A4.16,4.16,0,0,1,180,100Zm2.4-9.73a2.64,2.64,0,0,0-1.19.26,2.33,2.33,0,0,0-.83.69,3.08,3.08,0,0,0-.5,1,4.27,4.27,0,0,0-.16,1.19,4.44,4.44,0,0,0,.16,1.22,3.18,3.18,0,0,0,.5,1,2.49,2.49,0,0,0,.83.71,2.52,2.52,0,0,0,1.19.27,2.65,2.65,0,0,0,1.23-.26,2.52,2.52,0,0,0,.87-.71,3.28,3.28,0,0,0,.52-1,4.44,4.44,0,0,0,.17-1.22,4.28,4.28,0,0,0-.17-1.19,3.07,3.07,0,0,0-.52-1,2.59,2.59,0,0,0-.87-.69A2.65,2.65,0,0,0,184.91,90.27Z"/><path class="cls-1" d="M199.12,104.2a6.84,6.84,0,0,1-2.16-.33,4.93,4.93,0,0,1-1.73-1,4.24,4.24,0,0,1-1.13-1.53,4.71,4.71,0,0,1-.41-2,3.86,3.86,0,0,1,.76-2.44,3.61,3.61,0,0,1,2.05-1.32v0a3.24,3.24,0,0,1-1.61-1.22,3.33,3.33,0,0,1-.56-1.94,3.92,3.92,0,0,1,1.24-3.09,6.2,6.2,0,0,1,7.11,0,4,4,0,0,1,1.24,3.09,3.4,3.4,0,0,1-.56,1.94,3.26,3.26,0,0,1-1.62,1.22v0a3.64,3.64,0,0,1,2.06,1.32,3.92,3.92,0,0,1,.76,2.44,4.86,4.86,0,0,1-.41,2,4.24,4.24,0,0,1-1.13,1.53,5,5,0,0,1-1.73,1A6.9,6.9,0,0,1,199.12,104.2Zm0-2a3,3,0,0,0,2.09-.75,2.68,2.68,0,0,0,.84-2.11,2.48,2.48,0,0,0-.84-2,3.07,3.07,0,0,0-2.09-.72,3.1,3.1,0,0,0-2.09.72,2.5,2.5,0,0,0-.83,2,2.7,2.7,0,0,0,.83,2.11A3,3,0,0,0,199.12,102.22Zm0-12a2.55,2.55,0,0,0-1.71.6,2.18,2.18,0,0,0-.71,1.75,2.11,2.11,0,0,0,.68,1.68,2.59,2.59,0,0,0,1.74.58,2.56,2.56,0,0,0,1.74-.58,2.07,2.07,0,0,0,.68-1.68,2.18,2.18,0,0,0-.7-1.75A2.56,2.56,0,0,0,199.12,90.17Z"/><path class="cls-1" d="M221.08,88.18a4.49,4.49,0,0,1,2.69.76,5.2,5.2,0,0,1,1.63,1.94,8.63,8.63,0,0,1,.79,2.58,17.85,17.85,0,0,1,0,5.46,8.69,8.69,0,0,1-.79,2.59,5.17,5.17,0,0,1-1.63,1.93,4.42,4.42,0,0,1-2.69.76,4.47,4.47,0,0,1-2.7-.76,5.15,5.15,0,0,1-1.62-1.93,8.7,8.7,0,0,1-.8-2.59,17.85,17.85,0,0,1,0-5.46,8.64,8.64,0,0,1,.8-2.58,5.18,5.18,0,0,1,1.62-1.94A4.54,4.54,0,0,1,221.08,88.18Zm0,13.93a2,2,0,0,0,1.36-.47,3.16,3.16,0,0,0,.87-1.28,7.74,7.74,0,0,0,.45-1.88,18.47,18.47,0,0,0,.13-2.29,18.14,18.14,0,0,0-.13-2.27,8.07,8.07,0,0,0-.45-1.89,3.09,3.09,0,0,0-.87-1.28,2.2,2.2,0,0,0-2.74,0,3.16,3.16,0,0,0-.85,1.28,7.59,7.59,0,0,0-.46,1.89,20.27,20.27,0,0,0-.13,2.27,20.64,20.64,0,0,0,.13,2.29,7.29,7.29,0,0,0,.46,1.88,3.23,3.23,0,0,0,.85,1.28A2,2,0,0,0,221.08,102.11Z"/><path class="cls-1" d="M243,104.2a6.9,6.9,0,0,1-2.17-.33,5,5,0,0,1-1.73-1,4.24,4.24,0,0,1-1.13-1.53,4.86,4.86,0,0,1-.41-2,3.86,3.86,0,0,1,.76-2.44,3.64,3.64,0,0,1,2.06-1.32v0a3.22,3.22,0,0,1-1.62-1.22,3.4,3.4,0,0,1-.56-1.94,3.92,3.92,0,0,1,1.24-3.09,6.2,6.2,0,0,1,7.11,0,3.92,3.92,0,0,1,1.24,3.09,3.4,3.4,0,0,1-.56,1.94,3.22,3.22,0,0,1-1.62,1.22v0a3.61,3.61,0,0,1,2.06,1.32,3.86,3.86,0,0,1,.76,2.44,4.86,4.86,0,0,1-.41,2,4.24,4.24,0,0,1-1.13,1.53,4.93,4.93,0,0,1-1.73,1A6.84,6.84,0,0,1,243,104.2Zm0-2a3,3,0,0,0,2.09-.75,2.7,2.7,0,0,0,.83-2.11,2.5,2.5,0,0,0-.83-2,3.1,3.1,0,0,0-2.09-.72,3.07,3.07,0,0,0-2.09.72,2.48,2.48,0,0,0-.84,2,2.68,2.68,0,0,0,.84,2.11A3,3,0,0,0,243,102.22Zm0-12a2.56,2.56,0,0,0-1.72.6,2.18,2.18,0,0,0-.7,1.75,2.07,2.07,0,0,0,.68,1.68,2.89,2.89,0,0,0,3.47,0,2.08,2.08,0,0,0,.69-1.68,2.18,2.18,0,0,0-.71-1.75A2.55,2.55,0,0,0,243,90.17Z"/><path class="cls-1" d="M252.12,91a8.65,8.65,0,0,0,1.54-.13,4.66,4.66,0,0,0,1.35-.44,3.41,3.41,0,0,0,1-.79,2.49,2.49,0,0,0,.56-1.19h2.05v15.4h-2.75V93h-3.79Z"/><path class="cls-1" d="M274.08,91a8.65,8.65,0,0,0,1.54-.13,4.66,4.66,0,0,0,1.35-.44,3.41,3.41,0,0,0,1-.79,2.49,2.49,0,0,0,.56-1.19h2v15.4h-2.75V93h-3.78Z"/></svg>