<svg id="レイヤー_1" data-name="レイヤー 1" xmlns="http://www.w3.org/2000/svg" viewBox="0 0 227.27 227.27"><defs><style>.cls-1{fill:blue;}</style></defs><title>アートボード 6@1</title><path class="cls-1" d="M0,31.82V63.64H63.64V0H0V31.82Zm54.55,0V54.55H9.09V9.09H54.55V31.82Z"/><polygon class="cls-1" points="72.73 4.54 72.73 9.09 77.27 9.09 81.82 9.09 81.82 4.54 81.82 0 77.27 0 72.73 0 72.73 4.54 72.73 4.54"/><path class="cls-1" d="M118.18,13.64V27.27h-9.09v9.09h9.09v9.09H100v9.1H90.91v-9.1H81.82v9.1H72.73V72.73h9.09v9.09H72.73V100H63.64V90.91H54.55V81.82h9.09V72.73H54.55v9.09h-9.1V72.73H27.27v9.09H18.18V72.73H0v9.09H18.18v9.09H9.09V100H0v9.09H9.09V100h9.09v9.09h9.09v9.09h9.09v18.18H27.27v-9.09H18.18v-9.09H9.09v9.09h9.09v9.09H9.09v18.19h9.09V136.36h9.09v18.19h9.09v-9.09h9.09v9.09H63.64v-9.09H81.82v-9.1H72.73v-9.09H54.55v9.09h9.09v9.1H45.45V100H63.64v9.09H54.55v9.09h9.09v-9.09h9.09v9.09h9.09v9.09h27.27v-9.09h9.09v9.09h18.18v9.09h-9.09v9.1h-9.09v-9.1h-9.09v18.19h9.09v9.09h9.09v-9.09h9.09v-9.09h9.1v27.27H118.18v9.09h-9.09V163.64H100v18.18H90.91v9.09H81.82v-9.09H72.73V200h9.09v9.09H72.73v18.18h9.09V209.09h9.09v18.18H100V209.09h9.09V200h18.18v18.18h18.19v9.09h9.09v-9.09h9.09v9.09h9.09v-9.09h18.18v9.09H200v-9.09h18.18v9.09h9.09V190.91h-9.09v-9.09h-9.09V200H181.82v9.09h-9.09v9.09h-9.09V200h9.09v-9.09h18.18V145.46H200v18.18h18.18v9.09h9.09v-9.09h-9.09V145.46h9.09V127.27h-9.09v-9.09h9.09V90.91h-9.09V81.82h9.09V72.73h-9.09v9.09H172.73V72.73h-9.09v9.09h-9.09V54.55h-9.09v9.09h-9.1V54.55h-9.09v9.09h-9.09V45.45h18.18V36.36h9.1v9.09h9.09V9.09h-9.09v9.09h-9.1V36.36h-9.09V0h-9.09V13.64ZM90.91,59.09v4.55H100V54.55h9.09v9.09h9.09v9.09h9.09v9.09h9.09V100h-9.09v9.09h18.19V81.82h9.09v9.09h9.09V81.82h9.09v9.09h18.18v18.18h27.27v9.09h-9.09v9.09H190.91v-9.09h-9.09v18.18h9.09v9.1h-9.09v-9.1H163.64v-9.09h-9.09v18.19h-9.09V118.18H118.18v-9.09h-9.09v9.09H100v-9.09H72.73V100H90.91V90.91H81.82V81.82h9.09V63.64H81.82V54.55h9.09v4.54ZM45.45,90.91V100H36.36V90.91H27.27V81.82H45.45v9.09Zm172.73,4.55V100H200V90.91h18.18v4.55Zm0,45.45v4.55h-9.09v-9.1h9.09v4.55Zm-36.36,27.27v13.64H154.55V154.55h27.27v13.63Zm-54.55,18.18v4.55h-9.09v-9.09h9.09v4.54ZM100,200v9.09H90.91V190.91H100V200Zm54.55-4.54V200H136.36v-9.09h18.19v4.55Zm0,18.18v4.54h-9.09v-9.09h9.09v4.55Zm45.45,0v4.54h-9.09v-9.09H200v4.55Z"/><path class="cls-1" d="M163.64,31.82V63.64h63.63V0H163.64V31.82Zm54.54,0V54.55H172.73V9.09h45.45V31.82Z"/><polygon class="cls-1" points="81.82 22.73 81.82 27.27 86.36 27.27 90.91 27.27 90.91 31.82 90.91 36.36 95.45 36.36 100 36.36 100 27.27 100 18.18 90.91 18.18 81.82 18.18 81.82 22.73 81.82 22.73"/><polygon class="cls-1" points="90.91 140.91 90.91 145.46 95.45 145.46 100 145.46 100 140.91 100 136.36 95.45 136.36 90.91 136.36 90.91 140.91 90.91 140.91"/><polygon class="cls-1" points="72.73 159.09 72.73 163.64 77.27 163.64 81.82 163.64 81.82 168.18 81.82 172.73 86.36 172.73 90.91 172.73 90.91 168.18 90.91 163.64 86.36 163.64 81.82 163.64 81.82 159.09 81.82 154.55 77.27 154.55 72.73 154.55 72.73 159.09 72.73 159.09"/><path class="cls-1" d="M0,195.46v31.81H63.64V163.64H0v31.82Zm54.55,0v22.72H9.09V172.73H54.55v22.73Z"/><polygon class="cls-1" points="109.09 222.73 109.09 227.27 113.64 227.27 118.18 227.27 118.18 222.73 118.18 218.18 113.64 218.18 109.09 218.18 109.09 222.73 109.09 222.73"/><polygon class="cls-1" points="18.18 31.82 18.18 45.45 31.82 45.45 45.45 45.45 45.45 31.82 45.45 18.18 31.82 18.18 18.18 18.18 18.18 31.82 18.18 31.82"/><polygon class="cls-1" points="109.09 77.27 109.09 81.82 100 81.82 90.91 81.82 90.91 86.36 90.91 90.91 95.45 90.91 100 90.91 100 95.45 100 100 109.09 100 118.18 100 118.18 95.45 118.18 90.91 113.64 90.91 109.09 90.91 109.09 86.36 109.09 81.82 113.64 81.82 118.18 81.82 118.18 77.27 118.18 72.73 113.64 72.73 109.09 72.73 109.09 77.27 109.09 77.27"/><polygon class="cls-1" points="163.64 104.55 163.64 118.18 172.73 118.18 181.82 118.18 181.82 109.09 181.82 100 177.27 100 172.73 100 172.73 95.45 172.73 90.91 168.18 90.91 163.64 90.91 163.64 104.55 163.64 104.55"/><polygon class="cls-1" points="145.46 113.64 145.46 118.18 150 118.18 154.55 118.18 154.55 113.64 154.55 109.09 150 109.09 145.46 109.09 145.46 113.64 145.46 113.64"/><polygon class="cls-1" points="163.64 168.18 163.64 172.73 168.18 172.73 172.73 172.73 172.73 168.18 172.73 163.64 168.18 163.64 163.64 163.64 163.64 168.18 163.64 168.18"/><polygon class="cls-1" points="181.82 31.82 181.82 45.45 195.46 45.45 209.09 45.45 209.09 31.82 209.09 18.18 195.46 18.18 181.82 18.18 181.82 31.82 181.82 31.82"/><polygon class="cls-1" points="18.18 195.46 18.18 209.09 31.82 209.09 45.45 209.09 45.45 195.46 45.45 181.82 31.82 181.82 18.18 181.82 18.18 195.46 18.18 195.46"/></svg>