<svg id="レイヤー_1" data-name="レイヤー 1" xmlns="http://www.w3.org/2000/svg" viewBox="0 0 273.99 44.79"><defs><style>.cls-1{fill:blue;}</style></defs><title>アートボード 5@1</title><path class="cls-1" d="M10.53,5.74c0,2.78-2.22,4.51-5,4.51s-5-1.71-5-4.51a4.73,4.73,0,0,1,5-4.64A4.75,4.75,0,0,1,10.53,5.74Zm-7.87,0A2.72,2.72,0,0,0,5.49,8.54a2.72,2.72,0,0,0,2.84-2.8A2.67,2.67,0,0,0,5.49,3,2.72,2.72,0,0,0,2.66,5.72ZM9.92,19.6c-4.23,0-6.65-1.56-6.65-3.85s2.42-3.91,6.65-3.91,6.71,1.54,6.71,3.91S14.19,19.6,9.92,19.6ZM5.58,15.75c0,1.26,1.63,2,4.34,2s4.4-.77,4.4-2-1.61-2.06-4.4-2.06S5.58,14.46,5.58,15.75ZM11.15,2.4h3.08V0H16.5V11.84H14.23V8.91H11.15l.06-1.85h3V4.22h-3Z"/><path class="cls-1" d="M27.08,19.63V12.5H19.37V10.72H37.09V12.5H29.32v7.13ZM35.31,8.78c-2.91-.48-6.08-2.4-7.07-4.58-.86,2.18-4,4.07-7,4.6L20.23,7c3.48-.39,6.85-2.7,6.85-5.52v-1h2.37v1c0,2.82,3.72,5.22,6.89,5.52Z"/><path class="cls-1" d="M56.12,11.16H38.4V9.35H56.12ZM54.25,8.1c-2.93-.35-5.92-2-7-3.88-.9,1.94-3.72,3.55-7,3.9l-1-1.78c3.08-.18,6-1.57,6.66-3.74h-5.8V.77H54.38V2.6H48.61c.71,2.17,4,3.56,6.63,3.71Zm-7,11.44c-4.33,0-6.8-1.43-6.8-3.59s2.47-3.58,6.78-3.58,6.82,1.45,6.82,3.58S51.58,19.54,47.27,19.54Zm0-5.35c-2.75,0-4.47.66-4.47,1.76s1.72,1.76,4.47,1.76,4.49-.61,4.49-1.76S50,14.19,47.25,14.19Z"/><path class="cls-1" d="M68,8c.85,0,1.69,0,2.55-.06l.24-4.16L73,4l-.42,3.8c1.06-.06,2-.17,2.84-.26l.18,1.72a61.72,61.72,0,0,1-6.19.55c-1.91.11-4,.17-5.79.17l-.3-1.89c.81,0,1.74,0,2.68,0l-.46-4,2.2-.2Zm-4.08-5.1V1.12H74.77V2.93Zm2.67,16.52v-5H77.1V12.94H66.52V11.13H79.35v5H68.87v1.54H80v1.78ZM77.1,10.12V0h2.25V10.12Z"/><path class="cls-1" d="M82.25,17.12V15.31h4.09V11.9l2.29,0v3.43h4.89V11.88l2.26,0v3.41H100v1.81ZM91.1,11.4c-4.25,0-7.09-2.07-7.09-5s2.84-5,7.09-5,7.12,2.09,7.12,5S95.41,11.4,91.1,11.4Zm0-8.21c-2.89,0-4.8,1.28-4.8,3.17s1.91,3.17,4.8,3.17,4.81-1.28,4.81-3.17S94,3.19,91.1,3.19Z"/><path class="cls-1" d="M101.12,6.4V4.58h11.4V6.4Zm5.75,9.31c-2.82,0-4.71-1.76-4.71-4.18s1.89-4.18,4.71-4.18,4.66,1.78,4.66,4.18S109.66,15.71,106.87,15.71Zm-3-14.57h5.94V3H103.9Zm3,8.06a2.33,2.33,0,1,0,0,4.66,2.25,2.25,0,0,0,2.44-2.33A2.29,2.29,0,0,0,106.87,9.2Zm9.64-1.15h3V10h-3V19.6h-2.27V0h2.27Z"/><path class="cls-1" d="M128.93,14.74a9.9,9.9,0,0,1-3.72-5,9.31,9.31,0,0,1-3.93,5.5l-1.37-1.54A10.19,10.19,0,0,0,124.11,5V1.94h2.18V5c0,3.75,1.65,6.78,3.94,8.19Zm1.92,3.94v-10H128V6.84h2.82V.4H133V18.68Zm3.83.92V0h2.15V19.6Z"/><path class="cls-1" d="M139.34,17.12V15.31h4.09V11.9l2.29,0v3.43h4.88V11.88l2.27,0v3.41h4.18v1.81Zm8.84-5.72c-4.24,0-7.08-2.07-7.08-5s2.84-5,7.08-5,7.13,2.09,7.13,5S152.5,11.4,148.18,11.4Zm0-8.21c-2.88,0-4.79,1.28-4.79,3.17s1.91,3.17,4.79,3.17S153,8.25,153,6.36,151.11,3.19,148.18,3.19Z"/><path class="cls-1" d="M160.63,11.53c0-1.52.77-2.13,2.25-3.3a3.56,3.56,0,0,0,1.3-2.95c0-1.5-1-2.05-2.6-2.05a8.18,8.18,0,0,0-2.93.55V2.09a8.22,8.22,0,0,1,3.5-.66c2.4,0,4.38,1.06,4.38,3.74,0,1.87-.64,2.88-2.22,4.23-1.08.83-1.65,1.27-1.65,2.31v.88h-2Zm-.17,3.28h2.42v2.37h-2.42Z"/><path class="cls-1" d="M23.21,43.13a3.53,3.53,0,0,1-.94.83,5.58,5.58,0,0,1-1.11.52,5.29,5.29,0,0,1-1.13.27,4.26,4.26,0,0,1-.94,0,4.1,4.1,0,0,1-1.69-.65,7.89,7.89,0,0,1-1.51-1.28q-.48-.53-.78-.81a1.68,1.68,0,0,0-.54-.37.66.66,0,0,0-.48,0,5.75,5.75,0,0,0-.65.28,6.78,6.78,0,0,1-1.88.7,3.35,3.35,0,0,1-1.33,0,1.32,1.32,0,0,1-.46-.19.68.68,0,0,1-.29-.39c-.08-.28.16-.48.73-.6A7.84,7.84,0,0,0,11.52,41a6.71,6.71,0,0,0,1.34-.77,1.83,1.83,0,0,0,.55-.51.44.44,0,0,0,0-.37,8.3,8.3,0,0,1-.54-1.66,18.05,18.05,0,0,1-.34-2,.52.52,0,0,0-.31-.45A4,4,0,0,0,11,35.16a5.66,5.66,0,0,0-.8.05,1,1,0,0,0-.45.17.69.69,0,0,0-.19.37,2.68,2.68,0,0,0-.06.63c0,.29.08.45.24.5A3.73,3.73,0,0,0,11,36.83a3.49,3.49,0,0,1,.68,0,.27.27,0,0,1,.2.23.57.57,0,0,1-.22.65A4.72,4.72,0,0,1,11,38a7.47,7.47,0,0,1-.82.35,1,1,0,0,0-.57.42,2.22,2.22,0,0,0-.13.93A5.77,5.77,0,0,1,9,42.33a3,3,0,0,1-1.48,1.4,4.47,4.47,0,0,1-1.25.4,4.31,4.31,0,0,1-1.34,0,4.68,4.68,0,0,1-1.34-.36A4.12,4.12,0,0,1,2.31,43a1.27,1.27,0,0,1-.3-.42.38.38,0,0,1,0-.33.43.43,0,0,1,.29-.16,1,1,0,0,1,.54.11,3.09,3.09,0,0,0,1.41.27A5.22,5.22,0,0,0,6,42.06c.91-.33,1.38-1.16,1.43-2.48a.79.79,0,0,0,0-.38.13.13,0,0,0-.18,0l-1.44.4c-.46.13-.84.25-1.13.35a1.77,1.77,0,0,1-.8.1,2,2,0,0,1-.67-.2,1.27,1.27,0,0,1-.44-.38A.61.61,0,0,1,2.69,39a1.5,1.5,0,0,1,.16-.54.8.8,0,0,1,.34-.34,2.64,2.64,0,0,1,.57-.21,6.52,6.52,0,0,1,.88-.14l1.14-.13c.45-.06.94-.13,1.45-.22a.86.86,0,0,0,.21-.07.18.18,0,0,0,.09-.18q0-.75,0-1.47c0-.23-.1-.34-.32-.33l-1.4.14a11,11,0,0,0-1.28.21L2.94,36a6.69,6.69,0,0,0-.85.21,3.18,3.18,0,0,1-1.27.25.7.7,0,0,1-.66-.3A1.21,1.21,0,0,1,0,35.43a1.77,1.77,0,0,1,.68-1A1.67,1.67,0,0,1,1.55,34a3.73,3.73,0,0,1,.66,0,3.7,3.7,0,0,0,.55.1,2,2,0,0,0,.58,0l2-.13,1.82-.1a.34.34,0,0,0,.34-.26,4.14,4.14,0,0,0,0-1,.31.31,0,0,0-.07-.21.3.3,0,0,0-.25-.09c-.63,0-1.37,0-2.2,0a1.8,1.8,0,0,1-.6-.1,4.09,4.09,0,0,1-.56-.23,2.32,2.32,0,0,1-.45-.26q-.19-.13-.21-.21c-.32-.73-.14-1,.54-.8a4.76,4.76,0,0,0,1,.14,11.43,11.43,0,0,0,1.52,0A15.76,15.76,0,0,0,8,30.65a8.75,8.75,0,0,0,1.64-.52,2.41,2.41,0,0,1,1.26-.3,1.55,1.55,0,0,1,.83.58.74.74,0,0,1,.13.9,2,2,0,0,1-1.25.72,2.65,2.65,0,0,0-.83.34.79.79,0,0,0-.17.66,1.35,1.35,0,0,0,.05.38.43.43,0,0,0,.18.24.77.77,0,0,0,.36.11,3.57,3.57,0,0,0,.66,0,5,5,0,0,0,1.24-.15c.17-.07.26-.23.26-.5,0-.43,0-.88,0-1.33s0-.9.08-1.35a2.21,2.21,0,0,1,.29-1.06.86.86,0,0,1,.74-.34.9.9,0,0,1,.89.52,2.2,2.2,0,0,1,.11,1.28c0,.27-.07.59-.1,1s-.05.8-.05,1.28a.92.92,0,0,0,.1.54.72.72,0,0,0,.48.11h1.73l1.74,0,1.41.06a5,5,0,0,1,.79.11.74.74,0,0,1,.36.19.5.5,0,0,1,.09.31.83.83,0,0,1-.09.43.61.61,0,0,1-.41.22,5,5,0,0,1-.92.09H18l-1.67,0H14.84a.53.53,0,0,0-.31.07c-.06.05-.08.2,0,.43.07.4.15.77.23,1.1a4.89,4.89,0,0,0,.35,1,.72.72,0,0,0,.19.27c.06,0,.14,0,.23,0a1.85,1.85,0,0,0,.39-.4,7.71,7.71,0,0,0,.59-.88,4,4,0,0,1,.74-.92.65.65,0,0,1,.69,0,.79.79,0,0,1,.46.7A1.8,1.8,0,0,1,18,37.53a14.73,14.73,0,0,1-1.17,1.68,1.07,1.07,0,0,0-.17.27.29.29,0,0,0,0,.28,1.74,1.74,0,0,0,.34.37,7.23,7.23,0,0,0,.72.55,5.09,5.09,0,0,0,1.12.58,10,10,0,0,0,1.38.41,10.59,10.59,0,0,0,1.41.23,6.37,6.37,0,0,0,1.15,0c.6-.08.93,0,1,.1S23.69,42.53,23.21,43.13ZM19,31.73a2.45,2.45,0,0,1-.72.57,3.76,3.76,0,0,1-.82.32,4.31,4.31,0,0,1-.85.14,3.26,3.26,0,0,1-.78,0c-.35,0-.53-.12-.54-.23s.13-.29.42-.54a7.65,7.65,0,0,0,.78-.81c.28-.33.5-.61.67-.84a1.26,1.26,0,0,1,.77-.58,1.11,1.11,0,0,1,.85.23,1.13,1.13,0,0,1,.52.87A1,1,0,0,1,19,31.73Z"/><path class="cls-1" d="M37.46,37.23a4.71,4.71,0,0,1-.29,2.23,6.33,6.33,0,0,1-1.58,2.22,6.75,6.75,0,0,1-2.78,1.65,13.79,13.79,0,0,1-3.72.68,5.69,5.69,0,0,1-2.36-.34,1.92,1.92,0,0,1-1.17-1.21c-.08-.25-.08-.44,0-.56s.3-.15.6-.07a7.22,7.22,0,0,0,1.95.33,10.31,10.31,0,0,0,2.47-.23,12.77,12.77,0,0,0,1.56-.38,7.11,7.11,0,0,0,1.17-.48,5.13,5.13,0,0,0,.88-.57,4.5,4.5,0,0,0,.69-.69,3.34,3.34,0,0,0,.57-1.08,4,4,0,0,0,.11-1.4,1.37,1.37,0,0,1,.1-.82.66.66,0,0,1,.59-.28,1,1,0,0,1,.82.29A1.27,1.27,0,0,1,37.46,37.23Zm9.1-3.8a1.48,1.48,0,0,1,.11.49,5.08,5.08,0,0,1,0,.81,10.21,10.21,0,0,1-.09,1c0,.38-.11.76-.17,1.14a1.31,1.31,0,0,1-.35.65,1.1,1.1,0,0,1-.75.22c-.5,0-.78-.28-.83-.9,0-.33-.07-.69-.1-1.07a8.17,8.17,0,0,1,0-1.1.42.42,0,0,0-.16-.4,1.62,1.62,0,0,0-.67-.18c-1.08-.1-2.21-.17-3.39-.23s-2.33-.09-3.48-.09-2.26,0-3.32.11-2,.19-2.86.34a1,1,0,0,0-.57.24,1.11,1.11,0,0,0-.16.71c0,.22,0,.42,0,.61a3.73,3.73,0,0,1,0,.71,1.1,1.1,0,0,1-.23.7,1.69,1.69,0,0,1-.79.43,1.19,1.19,0,0,1-.48.05.47.47,0,0,1-.33-.23,1.74,1.74,0,0,1-.23-.6,10.11,10.11,0,0,1-.16-1.07,6.12,6.12,0,0,1,0-.91c0-.38,0-.68.06-.92a2,2,0,0,1,.62-1.27,1,1,0,0,1,.61-.33.93.93,0,0,1,.54.2,1.81,1.81,0,0,0,.29.17,1,1,0,0,0,.32.08,3.09,3.09,0,0,0,.47,0l.7,0c.78,0,1.57-.09,2.36-.12l2.31-.09,2.13-.06,1.82,0a.66.66,0,0,0,.34-.06,1.31,1.31,0,0,0,.24-.41,2.76,2.76,0,0,0,.27-.84c0-.31.11-.7.17-1.19s.16-.61.38-.68a1.3,1.3,0,0,1,.78,0,1.94,1.94,0,0,1,1,.54,1,1,0,0,1,.17.71A1.87,1.87,0,0,1,43,31a1,1,0,0,1-.19.35,4.16,4.16,0,0,1-.42.41,7.62,7.62,0,0,1-.69.52c-.14.12-.21.2-.18.24s.19.09.51.14l1.3.19a6.31,6.31,0,0,0,.74.06,1.05,1.05,0,0,0,.4-.06.91.91,0,0,0,.26-.19.42.42,0,0,1,.29-.13,1.17,1.17,0,0,1,.47.07,1.83,1.83,0,0,1,.54.3A2.08,2.08,0,0,1,46.56,33.43ZM33.84,31.81c.08.25.08.42,0,.5a.77.77,0,0,1-.58.07,3,3,0,0,1-1.48-.5,1.75,1.75,0,0,1-.59-1.15.93.93,0,0,1,.12-.68,1,1,0,0,1,.45-.39,1.43,1.43,0,0,1,1.06,0,1.13,1.13,0,0,1,.64.86,6.34,6.34,0,0,0,.19.68C33.72,31.44,33.78,31.64,33.84,31.81Zm8.25,4.72a2.43,2.43,0,0,0,0,.3c0,.12,0,.28,0,.48v.77q0,.48,0,1.2a1.06,1.06,0,0,1-.19.72,1.58,1.58,0,0,1-.78.48c-.92.34-1.37.12-1.36-.65,0-.18,0-.41,0-.7s0-.58,0-.9V36.51a.8.8,0,0,0-.11-.48.6.6,0,0,0-.37-.15c-.63-.05-1.36-.06-2.18-.05s-1.71.07-2.66.15a.73.73,0,0,0-.33.08.54.54,0,0,0,0,.3c0,.42,0,.86,0,1.32s0,.9-.07,1.28a2.09,2.09,0,0,1-.08.5.78.78,0,0,1-.19.32.92.92,0,0,1-.35.22,3.56,3.56,0,0,1-.58.16c-.43.1-.72.07-.87-.1a1.06,1.06,0,0,1-.2-.78c0-.23,0-.5.05-.81s0-.6,0-.89,0-.53,0-.75,0-.36-.05-.45a2.79,2.79,0,0,1,0-.78,1.35,1.35,0,0,1,.24-.69,1.16,1.16,0,0,1,1.53-.28,1.08,1.08,0,0,0,.67.08l1.46-.24a8.07,8.07,0,0,1,1.16-.09,7.49,7.49,0,0,1,1.14.09l1.41.24a1.32,1.32,0,0,0,.48,0,1.89,1.89,0,0,0,.4-.15,1.15,1.15,0,0,1,.76-.16,2.27,2.27,0,0,1,.86.41.84.84,0,0,1,.37.56A2.75,2.75,0,0,1,42.09,36.53Zm-3.93-4.77a.46.46,0,0,1-.35.51,1,1,0,0,1-.9-.11,2.87,2.87,0,0,1-1-.88,2,2,0,0,1-.28-1.1.75.75,0,0,1,.25-.53,1.07,1.07,0,0,1,.69-.32,2.2,2.2,0,0,1,1.07.2.79.79,0,0,1,.46.68q0,.34,0,.81A5.64,5.64,0,0,0,38.16,31.76ZM49,41a3.77,3.77,0,0,1-.25,1.1,4.45,4.45,0,0,1-.68,1.1,3.09,3.09,0,0,1-1.41,1.1,5.73,5.73,0,0,1-2,.3q-.82,0-1.68-.06t-1.65-.18q-.8-.1-1.5-.27a7.49,7.49,0,0,1-1.2-.37,2.26,2.26,0,0,1-1.3-1.5,5.09,5.09,0,0,1,0-2.65c.23-.86.7-1.21,1.4-1,.33.07.39.39.18.95a4.65,4.65,0,0,0-.25.75,1.25,1.25,0,0,0,0,.53.82.82,0,0,0,.2.42,2.9,2.9,0,0,0,.43.43,2.19,2.19,0,0,0,.61.25,8.41,8.41,0,0,0,1,.21,9.69,9.69,0,0,0,1.27.11,12.27,12.27,0,0,0,1.36,0,12.84,12.84,0,0,0,4.93-1.68c.18-.11.32-.12.41,0A.72.72,0,0,1,49,41Z"/><path class="cls-1" d="M58.39,32.31c.34.32.31.68-.11,1.1-.18.18-.35.36-.52.52s-.33.33-.5.48a3.14,3.14,0,0,0-.53.6,1.26,1.26,0,0,0-.07.6c0,.58.06,1.12.07,1.6s0,1,0,1.47,0,1,0,1.6,0,1.22,0,1.95a3.59,3.59,0,0,1-.06.72,1.36,1.36,0,0,1-.19.47,1,1,0,0,1-.37.33,3.88,3.88,0,0,1-.63.26c-.52.17-.87.05-1.06-.35a5.13,5.13,0,0,1-.21-2.18c0-.45.06-1,.08-1.76s.07-1.6.14-2.64q0-.49-.09-.57c-.09,0-.34,0-.73.17a3.15,3.15,0,0,1-1.52.29,1.91,1.91,0,0,1-1.21-.59,3.23,3.23,0,0,1-.47-.53,1.62,1.62,0,0,1-.25-.49q-.18-.49.42-.6l1.24-.24c.37-.07.73-.16,1.09-.25l1-.27c.33-.09.68-.21,1.05-.34a8.78,8.78,0,0,0,1.3-.59,12.75,12.75,0,0,0,1.3-.79.81.81,0,0,1,.42-.12A.61.61,0,0,1,58.39,32.31ZM58,29.41a.45.45,0,0,1,.32.4.91.91,0,0,1-.34.62,11,11,0,0,1-.84.77,7.43,7.43,0,0,1-.78.55,6.9,6.9,0,0,1-.86.43,8.75,8.75,0,0,1-1,.38,2.08,2.08,0,0,1-.67.11,4.14,4.14,0,0,1-.79-.05,4.22,4.22,0,0,1-.7-.17.85.85,0,0,1-.43-.29,1.33,1.33,0,0,1-.25-.46,1.48,1.48,0,0,1,0-.54.47.47,0,0,1,.15-.34,1.21,1.21,0,0,1,.6-.09,6.09,6.09,0,0,0,1.07-.12c.44-.08.88-.19,1.33-.31s.87-.26,1.25-.4a4.38,4.38,0,0,0,.85-.39,1.11,1.11,0,0,1,.57-.19A1.2,1.2,0,0,1,58,29.41Zm16.11,8.87a2.16,2.16,0,0,1-.67.8,4.72,4.72,0,0,1-.78.5,2.31,2.31,0,0,1-.49.18,1.61,1.61,0,0,1-.5,0,3.7,3.7,0,0,1-.69-.13l-1-.32a1.6,1.6,0,0,0-1-.11c-.14.08-.22.28-.22.61v.49a5.55,5.55,0,0,0,0,.56,5.52,5.52,0,0,1-.06.93,2.29,2.29,0,0,1-.19.65,3.4,3.4,0,0,1-.83,1.09,3.69,3.69,0,0,1-1.32.73,5.33,5.33,0,0,1-1.75.24,6,6,0,0,1-2.1-.44,6.87,6.87,0,0,1-1.09-.46,4.44,4.44,0,0,1-.75-.5,2.78,2.78,0,0,1-.53-.56c-.14-.2-.28-.43-.44-.7s-.12-.38,0-.48.27-.06.49.1a12.56,12.56,0,0,0,1.13.74,2.46,2.46,0,0,0,.82.34A8.31,8.31,0,0,0,64,42.7a3.76,3.76,0,0,0,1.23-.25,1.76,1.76,0,0,0,.76-.6,2.6,2.6,0,0,0,.4-.94,3.5,3.5,0,0,0,.08-.55c0-.25,0-.54.07-.88s0-.5-.1-.57a1.07,1.07,0,0,0-.52-.15c-.64,0-1.25-.08-1.86-.08-.21,0-.24.09-.07.25a1.31,1.31,0,0,1,.2.28l.18.35a1.57,1.57,0,0,0,.39.45,5.45,5.45,0,0,0,.58.4c.18.1.26.21.24.32s-.15.22-.36.3a1.53,1.53,0,0,1-.82,0A4.58,4.58,0,0,1,63,40.53c-.56-.3-.86-.61-.88-.93a.68.68,0,0,1,.36-.72c.07,0,.09-.07.07-.11s-.09-.05-.22,0l-.33,0-.29,0-.72.12q-.4.07-.78.18l-.69.19a3.43,3.43,0,0,0-.41.13c-.74.39-1.26.29-1.58-.3a.66.66,0,0,1,0-.52,1.4,1.4,0,0,1,.37-.56,2.17,2.17,0,0,1,.62-.44,1.51,1.51,0,0,1,.79-.15c.27,0,.53,0,.8,0h1.72c.54-.07,1.19-.11,1.95-.13l2.33,0q.38,0,.45-.09a.3.3,0,0,0,0-.29.23.23,0,0,0-.12-.18,1,1,0,0,0-.45-.07l-2.06,0c-.68,0-1.34,0-2,0a7,7,0,0,0-.82.06,3.91,3.91,0,0,0-.73.14,1.74,1.74,0,0,1-.91.11.55.55,0,0,1-.31-.46.57.57,0,0,1,.08-.46,1.2,1.2,0,0,1,.4-.37,1.91,1.91,0,0,1,.65-.21,2.52,2.52,0,0,1,.82,0l.89.12a4.26,4.26,0,0,0,.86,0c.46,0,.94,0,1.43-.06s1,0,1.64,0l2,.06,2.46.13a1.6,1.6,0,0,1,.84.19c.09.09,0,.27-.14.53s-.45.28-1,.28h-1a1.1,1.1,0,0,0-.38,0c-.07,0-.09.1-.07.23a.51.51,0,0,0,.09.28.67.67,0,0,0,.36.1,4.19,4.19,0,0,0,.48,0,1.52,1.52,0,0,1,.34,0l.91.09,1.12.06,1,0h.49a1.16,1.16,0,0,1,.78,0Q74.38,37.79,74.14,38.28Zm-4.23-6.8a3.75,3.75,0,0,0-.11.6c0,.22,0,.43,0,.63a5,5,0,0,0,0,.55,1.11,1.11,0,0,0,.06.35,1.59,1.59,0,0,1,0,.81,1.11,1.11,0,0,1-.39.66.88.88,0,0,1-.35.17,2.34,2.34,0,0,1-.45.07,2,2,0,0,1-.43,0,.49.49,0,0,1-.27-.1,1.16,1.16,0,0,0-.36-.1c-.19,0-.5-.06-.91-.08L64.9,35H62.71a.88.88,0,0,0-.31.09,1,1,0,0,0-.26.14,1.17,1.17,0,0,1-1.18.12,1.05,1.05,0,0,1-.59-.43,1.71,1.71,0,0,1-.14-.87,8.24,8.24,0,0,0,0-1.17A6.51,6.51,0,0,0,60,31.51a2.45,2.45,0,0,1-.12-1,1.31,1.31,0,0,1,.44-.77.93.93,0,0,1,.67-.26,1.12,1.12,0,0,1,.66.26,2,2,0,0,0,.3.19.76.76,0,0,0,.4,0l1.63-.06h1.31c.39,0,.75,0,1.07.05s.65.06,1,.11a1,1,0,0,0,.78-.13.57.57,0,0,1,.28-.11,2.71,2.71,0,0,1,.41,0,2,2,0,0,1,.42,0,1.08,1.08,0,0,1,.34.15,1.32,1.32,0,0,1,.43.67A1.68,1.68,0,0,1,69.91,31.48Zm-2.35.28c0-.28-.18-.45-.55-.5a14.77,14.77,0,0,0-1.87-.11c-.79,0-1.61,0-2.45,0a.78.78,0,0,0-.39.1c-.06,0-.08.16-.07.33a.73.73,0,0,0,.08.29s.12.06.25.06c.68,0,1.42,0,2.21,0s1.51,0,2.14.06a1.22,1.22,0,0,0,.55,0A.22.22,0,0,0,67.56,31.76Zm0,1.72a.34.34,0,0,0-.09-.27.74.74,0,0,0-.36-.1c-.68,0-1.4-.08-2.15-.08s-1.46,0-2.12,0a.92.92,0,0,0-.44.1.36.36,0,0,0-.09.28.43.43,0,0,0,.12.36.92.92,0,0,0,.53.06l.83,0h1.77l1.25,0C67.36,33.88,67.61,33.75,67.61,33.48Z"/><path class="cls-1" d="M87.89,33a4.67,4.67,0,0,0-.14.66c-.06.34-.13.76-.2,1.26s-.15,1.06-.23,1.68-.14,1.26-.21,1.92a6.59,6.59,0,0,1-.71,2.6,3.36,3.36,0,0,1-1.59,1.4,4.28,4.28,0,0,1-1.81.53.82.82,0,0,1-.74-.48.39.39,0,0,1,0-.26.46.46,0,0,1,.23-.26,9.1,9.1,0,0,0,1-.75,4.84,4.84,0,0,0,.72-.84,4.7,4.7,0,0,0,.53-1A13.17,13.17,0,0,0,85.11,38c0-.15,0-.23-.17-.23H83.41a.31.31,0,0,0-.32.23,8.28,8.28,0,0,1-1.67,3.14,8,8,0,0,1-3,2.16,2.92,2.92,0,0,1-.88.22,2.18,2.18,0,0,1-.88-.06,2.33,2.33,0,0,1-.83-.39,2,2,0,0,1-.63-.75c-.12-.23,0-.38.2-.45a10.63,10.63,0,0,0,3.28-1.38,6.08,6.08,0,0,0,2.09-2.37c.1-.2,0-.29-.23-.27a9.51,9.51,0,0,0-1.5.22,2.09,2.09,0,0,1-.84.18.63.63,0,0,1-.48-.38.85.85,0,0,1-.11-.62,1,1,0,0,1,.49-.63,1.36,1.36,0,0,1,.71-.27,1.57,1.57,0,0,1,.73.07,1.78,1.78,0,0,0,.48.08,9.41,9.41,0,0,0,1.08,0,.33.33,0,0,0,.35-.23l.09-.48c0-.16.07-.33.11-.52a.3.3,0,0,0,0-.18q0-.12-.21-.12c-.7,0-1.25.05-1.64.09a3.81,3.81,0,0,0-.79.14.82.82,0,0,1-.47.1.73.73,0,0,1-.36-.13.44.44,0,0,1-.18-.26.53.53,0,0,1,.06-.34,4.4,4.4,0,0,1,.39-.56,4.7,4.7,0,0,1,.64-.54.94.94,0,0,1,1-.12,1.87,1.87,0,0,0,.58.16,6.51,6.51,0,0,0,1,.06.3.3,0,0,0,.32-.3A9.21,9.21,0,0,0,82,32.13c0-.26-.09-.4-.3-.4a9.37,9.37,0,0,0-1.53.08,3.89,3.89,0,0,0-1.06.27,1.37,1.37,0,0,1-.8.18.84.84,0,0,1-.61-.43.6.6,0,0,1,.11-.63,2.87,2.87,0,0,1,1-.84,2.56,2.56,0,0,1,1.18-.3,4.4,4.4,0,0,1,1.64.3,3.14,3.14,0,0,0,.79.12c.41,0,.84.06,1.28.08s.87,0,1.25,0a2.14,2.14,0,0,0,.73-.07,1.4,1.4,0,0,1,2,.57,2.1,2.1,0,0,1,.28.88A3.12,3.12,0,0,1,87.89,33Zm-2.3,2.25c0-.2-.06-.3-.2-.3H83.91q-.22,0-.3.3c0,.18,0,.34-.06.46a3.24,3.24,0,0,1-.07.46c0,.2,0,.3.25.28a4.23,4.23,0,0,1,.66-.05l.75,0a.31.31,0,0,0,.34-.3c0-.13,0-.27,0-.41Zm.25-2.65c0-.42-.1-.63-.38-.65a4.48,4.48,0,0,0-.46-.05l-.72-.05c-.14,0-.23.1-.25.3,0,.38-.08.76-.14,1.12,0,.2,0,.3.22.3l.64,0,.71,0c.2,0,.31-.13.32-.38a1.09,1.09,0,0,0,0-.26A1.09,1.09,0,0,1,85.84,32.61ZM98,37.86a3.13,3.13,0,0,1-.41,1.4,2.92,2.92,0,0,1-1.11,1.06A6.43,6.43,0,0,1,94.6,41a13,13,0,0,1-2.82.21.2.2,0,0,0-.22.22q0,.9-.06,1.5a3.14,3.14,0,0,1-.23,1,1.2,1.2,0,0,1-.41.53,1.36,1.36,0,0,1-.63.23c-.18,0-.34-.08-.48-.35a3.19,3.19,0,0,1-.31-1c0-.13,0-.45,0-1s0-1.06,0-1.69,0-1.26,0-1.91,0-1.2.07-1.65c0-.25,0-.55,0-.89s0-.71,0-1.12,0-.84,0-1.28,0-.88,0-1.31a.24.24,0,0,0-.17-.26.47.47,0,0,0-.35,0,1,1,0,0,1-.52.11c-.09,0-.14-.13-.16-.31a.93.93,0,0,1,.12-.41,2.1,2.1,0,0,1,.3-.48,2.67,2.67,0,0,1,.4-.42c.14-.13.27-.23.38-.32a1.16,1.16,0,0,1,.67-.16,4.94,4.94,0,0,1,.71.16,2.39,2.39,0,0,0,.48.12,4.65,4.65,0,0,0,.89,0l.68,0,.74,0,.67,0a3.32,3.32,0,0,1,.49.08.79.79,0,0,0,.34,0,2.83,2.83,0,0,0,.36-.07,2.08,2.08,0,0,1,1.06-.13.93.93,0,0,1,.57.58,1.93,1.93,0,0,1,.2.76,1.28,1.28,0,0,1-.36.64,5.21,5.21,0,0,1-.37.4l-.54.51a7.08,7.08,0,0,1-.59.5c-.2.16-.38.3-.54.41s-.21.24,0,.3a9.14,9.14,0,0,1,1.58.73,3.77,3.77,0,0,1,1,.8A2.23,2.23,0,0,1,98,37,3,3,0,0,1,98,37.86Zm-2.55,0a1.38,1.38,0,0,0-.12-.84,1.77,1.77,0,0,0-.66-.71,3.52,3.52,0,0,0-1.19-.45,6.29,6.29,0,0,0-1.73-.08c-.14,0-.22.09-.22.25,0,.64,0,1.27,0,1.89s0,1.21,0,1.74q0,.3.3.27a11.78,11.78,0,0,0,1.67-.22,3.44,3.44,0,0,0,1.08-.4,1.66,1.66,0,0,0,.6-.61A2.37,2.37,0,0,0,95.48,37.86ZM94.31,33c.18-.37.24-.62.17-.76s-.31-.26-.75-.34a4.39,4.39,0,0,0-.7,0c-.38,0-.77,0-1.17.05-.15,0-.22.09-.22.25,0,.39,0,.78,0,1.18s0,.82,0,1.25c0,.22.07.29.22.22a8.1,8.1,0,0,0,1.78-1A2.67,2.67,0,0,0,94.31,33Z"/><path class="cls-1" d="M108.34,30.76a3.83,3.83,0,0,1-.81,1,7.05,7.05,0,0,1-1.12.86A.92.92,0,0,0,106,33a2.32,2.32,0,0,0-.06.66V36.8c0,.61,0,1.29,0,2.06s0,1.65,0,2.65a3.79,3.79,0,0,1-.25,1.84,1.55,1.55,0,0,1-1,.73,2.52,2.52,0,0,1-.63.15.41.41,0,0,1-.38-.12.87.87,0,0,1-.17-.51,6.54,6.54,0,0,1,0-1c0-.56,0-1.18,0-1.86s0-1.37.06-2.09,0-1.42.07-2.13,0-1.38.07-2c0-.28,0-.45-.08-.51s-.23-.06-.48,0l-.55.11-.52.09a1.48,1.48,0,0,1-1.32-.35,3.27,3.27,0,0,1-.8-1.6c-.09-.23-.09-.39,0-.46a.83.83,0,0,1,.55-.12,7.38,7.38,0,0,0,1.12-.12c.48-.08,1-.2,1.66-.34s1.31-.31,2-.51,1.48-.43,2.25-.68c.33-.1.56-.07.69.07S108.5,30.43,108.34,30.76Zm16.07,5.6a6.06,6.06,0,0,1-.7,1.09,2.35,2.35,0,0,1-.75.61,2,2,0,0,1-.87.2,3.8,3.8,0,0,1-1.08-.18,15.07,15.07,0,0,0-1.75-.33c-.77-.11-1.55-.2-2.35-.27-.27,0-.43,0-.5,0s-.09.22-.07.49,0,.39,0,.57,0,.36,0,.53c0,.77.07,1.52.06,2.26a15.36,15.36,0,0,1-.08,1.66c0,.39-.1.69-.13.9a1.08,1.08,0,0,1-.17.49.76.76,0,0,1-.33.23,2.05,2.05,0,0,1-.57.06c-.41,0-.66-.07-.75-.25a3.53,3.53,0,0,1-.25-1.15,5.28,5.28,0,0,1,0-.64c0-.31,0-.65,0-1s0-.77,0-1.18V39.36c0-.23,0-.47,0-.7a6,6,0,0,1,0-.73c0-.25,0-.4-.09-.47a.67.67,0,0,0-.46-.08,32.87,32.87,0,0,0-3.49.4,10.72,10.72,0,0,0-2.18.58,1.92,1.92,0,0,1-.94.25.68.68,0,0,1-.47-.43,1,1,0,0,1,0-.85,2,2,0,0,1,.65-.82A2.09,2.09,0,0,1,108,36a1.87,1.87,0,0,1,.88.15,4.68,4.68,0,0,0,.59.13,2.58,2.58,0,0,0,.68,0c.27,0,.71-.07,1.32-.1l1.91-.1a.8.8,0,0,0,.57-.21,1.48,1.48,0,0,0,.15-.82v-.36a3.53,3.53,0,0,0,0-.36.64.64,0,0,0-.12-.45.71.71,0,0,0-.51-.13h-1l-1,0a1.62,1.62,0,0,0-.63.17,4.66,4.66,0,0,0-.46.31,3.83,3.83,0,0,1-.55.42,2,2,0,0,1-.55.25,2.32,2.32,0,0,1-1.13.22,1.51,1.51,0,0,1-.82-.44.31.31,0,0,1-.14-.34.53.53,0,0,1,.31-.36,8.69,8.69,0,0,0,1.7-1.28,6.65,6.65,0,0,0,1.22-1.6,2.94,2.94,0,0,1,.73-1,.74.74,0,0,1,.65-.06,1.08,1.08,0,0,1,.73.69,1.8,1.8,0,0,1-.08,1.13c-.08.19-.1.31-.05.37s.21.08.48.06h.38a3,3,0,0,0,.41,0,.36.36,0,0,0,.28-.14.88.88,0,0,0,0-.49c0-.28,0-.52,0-.73a2.86,2.86,0,0,0,0-.44,6.11,6.11,0,0,1-.07-.84.73.73,0,0,1,.11-.46.48.48,0,0,1,.39-.16,3.4,3.4,0,0,1,.75.08,3.12,3.12,0,0,1,.77.29,1.19,1.19,0,0,1,.41.39,1,1,0,0,1,.14.55q0,.33,0,.75c0,.08,0,.18,0,.29s0,.22,0,.33,0,.38,0,.44a1,1,0,0,0,.53.09l1.72.06q.85,0,1.38.06a.83.83,0,0,1,.44.18.7.7,0,0,1,.11.45.64.64,0,0,1-.14.39.71.71,0,0,1-.38.16c-.22,0-.56.07-1,.1s-1.17,0-2.14,0c-.28,0-.46.08-.54.2a.85.85,0,0,0-.1.57v.6a1.5,1.5,0,0,0,.12.72.57.57,0,0,0,.5.18h3.81l1.84,0,1.5,0C124.44,36,124.54,36.13,124.41,36.36Z"/><path class="cls-1" d="M132.48,37.33a4.93,4.93,0,0,1-1.39.3,9.71,9.71,0,0,1-1.78,0l-.55,0-.57,0a3.13,3.13,0,0,1-1-.16,2.39,2.39,0,0,1-.78-.42,1.46,1.46,0,0,1-.42-.63,1,1,0,0,1,0-.74,1.2,1.2,0,0,1,1.52-.92,7.32,7.32,0,0,1,.82.24l.95.38c.22.1.48.21.77.32s.59.21.89.3.57.17.83.23a6.58,6.58,0,0,0,.67.15c.3,0,.46.2.48.43S132.77,37.22,132.48,37.33Zm1.73,2.4a2.37,2.37,0,0,1-.32.53,9,9,0,0,1-.63.72,11.26,11.26,0,0,1-.85.83c-.32.28-.65.55-1,.8a4.34,4.34,0,0,1-1.54.7,2,2,0,0,1-1.21,0,1.41,1.41,0,0,1-.69-.5,1.33,1.33,0,0,1-.19-.7,1.15,1.15,0,0,1,.25-.73,1.73,1.73,0,0,1,.86-.47l1-.35c.37-.13.75-.28,1.13-.43s.76-.31,1.13-.48.69-.35,1-.52c.48-.28.82-.36,1-.23S134.39,39.3,134.21,39.73Zm.18-6.57c-.07.27-.31.4-.73.4-.58,0-1.15-.05-1.69-.11s-1-.14-1.47-.23a7.2,7.2,0,0,1-1.13-.31,1.6,1.6,0,0,1-.64-.38,1.24,1.24,0,0,1-.45-1.1,1.2,1.2,0,0,1,.32-.73,1.12,1.12,0,0,1,.86-.42,3.13,3.13,0,0,1,.44,0,2.19,2.19,0,0,1,.51.19c.2.1.45.25.75.44l1.15.73q.3.21.72.45c.29.17.54.3.75.4a2,2,0,0,1,.54.32A.3.3,0,0,1,134.39,33.16Zm15.05,9.07a6.67,6.67,0,0,1-1.29,1.47,4.5,4.5,0,0,1-1.39.81,3.43,3.43,0,0,1-2.11-.08,6.35,6.35,0,0,1-2.54-1.7,11,11,0,0,0-.83-.75c-.26-.21-.54-.42-.82-.62a1,1,0,0,0-.37-.21c-.09,0-.2.05-.36.18a8.44,8.44,0,0,1-1.43,1.1,5.72,5.72,0,0,1-1.19.58,11.82,11.82,0,0,1-1.85.42,7.09,7.09,0,0,1-1.54.09,3.11,3.11,0,0,1-1.08-.22.77.77,0,0,1-.5-.52c-.07-.2-.08-.33,0-.4a.68.68,0,0,1,.39-.12,8.49,8.49,0,0,0,3.18-.68,11.72,11.72,0,0,0,2.52-1.45c.18-.13.27-.24.27-.32s-.1-.2-.32-.35a3.78,3.78,0,0,0-1.1-.61,3,3,0,0,0-.95-.12,1,1,0,0,1-.56-.11.35.35,0,0,1-.2-.29.6.6,0,0,1,.13-.37,1.33,1.33,0,0,1,.46-.35,2.09,2.09,0,0,1,.91-.29,1.54,1.54,0,0,1,.84.24c.28.17.56.32.83.47s.53.3.76.45a.9.9,0,0,0,.45.17.41.41,0,0,0,.3-.22,2.78,2.78,0,0,0,.61-1.27c0-.28-.35-.45-.93-.5a6.61,6.61,0,0,0-2.18.27,2.21,2.21,0,0,1-.61.13.31.31,0,0,1-.28-.15.84.84,0,0,1-.17-.51,1.37,1.37,0,0,1,.37-.67,1.15,1.15,0,0,1,.35-.31,1.41,1.41,0,0,1,.54-.14,8.26,8.26,0,0,1,.94,0c.39,0,.9.09,1.52.17a1.53,1.53,0,0,0,.52,0,3.48,3.48,0,0,0,.63-.15,2,2,0,0,1,1-.1.91.91,0,0,1,.59.36,1.15,1.15,0,0,1,.17.74,2.87,2.87,0,0,1-.28,1,11,11,0,0,1-1.07,1.8c-.22.28-.19.48.07.6.62.28,1.22.53,1.81.75s1.17.4,1.76.56,1.2.3,1.84.41,1.3.23,2,.33C149.53,41.86,149.6,42,149.44,42.23Zm-3.25-9.12a1.21,1.21,0,0,1,.21.61.75.75,0,0,1-.29.59A2.88,2.88,0,0,1,145,35a5.08,5.08,0,0,1-1.82.14,7.4,7.4,0,0,1-1.37-.19,1.53,1.53,0,0,1-1.25-1.4,7,7,0,0,1,0-1.54c0-.4,0-.65-.11-.76a1.16,1.16,0,0,0-.71-.19,3,3,0,0,0-.44,0l-.61,0a.63.63,0,0,0-.37.12.5.5,0,0,0-.08.33,6.52,6.52,0,0,1-.5,2.71,4.28,4.28,0,0,1-1.41,1.79,2.59,2.59,0,0,1-.78.39,2.14,2.14,0,0,1-.78.07,1.21,1.21,0,0,1-.61-.22,1,1,0,0,1-.33-.57.59.59,0,0,1,0-.37.38.38,0,0,1,.26-.15,3.38,3.38,0,0,0,1.22-.68,3,3,0,0,0,.81-1.08,3.89,3.89,0,0,0,.28-1.44,4.69,4.69,0,0,0-.31-1.7.59.59,0,0,1,.47-.88,1.06,1.06,0,0,1,.93.18,1.35,1.35,0,0,0,.7.25c.42,0,.76,0,1,0h.66a1.6,1.6,0,0,0,.39-.06l.23-.1a1.44,1.44,0,0,1,.91-.4,1.15,1.15,0,0,1,.7.32,1.31,1.31,0,0,1,.46.57,1.85,1.85,0,0,1-.21.78.92.92,0,0,0-.08.3c0,.14,0,.28,0,.44a4,4,0,0,0,0,.49,2.11,2.11,0,0,0,.06.42,1,1,0,0,0,.25.5,1.12,1.12,0,0,0,.61.28,3.05,3.05,0,0,0,1,0,9.08,9.08,0,0,0,1.45-.37A.83.83,0,0,1,146,33,.32.32,0,0,1,146.19,33.11Z"/><path class="cls-1" d="M173.78,32.16a3.4,3.4,0,0,1-.91,1.19,4.65,4.65,0,0,1-1.78.78,2.59,2.59,0,0,1-1,0,5.86,5.86,0,0,1-1.25-.37,11.09,11.09,0,0,0-2.7-.61,35.26,35.26,0,0,0-3.8-.24.24.24,0,0,0-.22.12,10,10,0,0,1-.83,1.28c-.08.1-.11.19-.07.26s.11.12.25.14a18,18,0,0,0,2.84.15,4,4,0,0,0,1.7-.3,2,2,0,0,1,.49-.16,1.94,1.94,0,0,1,.59,0,2.83,2.83,0,0,1,.58.11,1.37,1.37,0,0,1,.45.24,1.57,1.57,0,0,1,.48,1,3.56,3.56,0,0,1-.06,1.44,6.87,6.87,0,0,0-.11,1,12.86,12.86,0,0,0,0,1.4c0,.52,0,1.06.08,1.62s.11,1.13.19,1.68a4.25,4.25,0,0,1,0,.66.69.69,0,0,1-.17.45,1,1,0,0,1-.46.31,4.83,4.83,0,0,1-.84.25,2,2,0,0,1-1.14.09c-.15-.09-.23-.34-.23-.74V40.71a.22.22,0,0,0-.25-.25c-1.57-.07-3.08-.07-4.52,0a.23.23,0,0,0-.23.2,8.14,8.14,0,0,1-.42,1.4,4.35,4.35,0,0,1-.57,1,3,3,0,0,1-.67.63,5.57,5.57,0,0,1-.76.41,2.84,2.84,0,0,1-.92.24,3.19,3.19,0,0,1-.93-.07,2.48,2.48,0,0,1-.86-.35,2,2,0,0,1-.64-.62q-.37-.6.39-.75a5.82,5.82,0,0,0,2.21-.94,3.31,3.31,0,0,0,1.25-1.91,7.84,7.84,0,0,0,.22-2.83.24.24,0,0,0-.43-.17c-.43.3-.89.59-1.39.87s-1,.55-1.49.79-1,.45-1.41.63a11.73,11.73,0,0,1-1.16.38,6.15,6.15,0,0,1-1.25.17,2.75,2.75,0,0,1-1.06-.17,1.72,1.72,0,0,1-.76-.53,1.5,1.5,0,0,1-.32-.94c0-.18,0-.3.07-.35a.46.46,0,0,1,.27-.08,11.39,11.39,0,0,0,1.84-.17,18.46,18.46,0,0,0,2.21-.51,16.89,16.89,0,0,0,2.16-.82,7,7,0,0,0,1.67-1,3.49,3.49,0,0,0,.62-.7,5,5,0,0,0,.48-.83c.12-.26,0-.38-.25-.35-.45,0-.91.07-1.37.09s-.93.06-1.38.11a19.72,19.72,0,0,0-2.26.33,11.89,11.89,0,0,0-1.61.47,1.11,1.11,0,0,1-1.4-.25c-.14-.16-.13-.42,0-.76a2.6,2.6,0,0,1,.86-1,2.14,2.14,0,0,1,2.3-.48,2.74,2.74,0,0,0,.94.14,20.19,20.19,0,0,0,2.11,0c.38,0,.77-.05,1.16-.06l1.19,0a.24.24,0,0,0,.25-.22,2,2,0,0,0,0-.59,4.34,4.34,0,0,0-.08-.46.86.86,0,0,1,.22-1,1.58,1.58,0,0,1,1.37-.2,1.74,1.74,0,0,1,1,.46,2.74,2.74,0,0,1,.5,1.11.7.7,0,0,1,0,.24,1.55,1.55,0,0,1,0,.31c0,.19.05.28.25.28q2.17,0,4.05,0c1.25,0,2.27.08,3,.15.48,0,1,.05,1.62.05s1.17,0,1.7-.05a.42.42,0,0,1,.37.09C173.92,31.77,173.9,31.93,173.78,32.16Zm-7.87,6.35c.05-.2,0-.3-.25-.3-.75,0-1.47-.05-2.18,0l-2.14.06c-.15,0-.23.1-.23.28v.2a1.36,1.36,0,0,1,0,.2c-.06.2,0,.3.25.3l2.22,0c.73,0,1.42,0,2.08,0a.22.22,0,0,0,.25-.25v-.24A.75.75,0,0,1,165.91,38.51Zm.1-1.68a.6.6,0,0,0-.7-.75l-1.86,0-2,0c-.17,0-.25.1-.25.28v.47a.22.22,0,0,0,.25.25l2.24,0,2.11,0A.22.22,0,0,0,166,36.83Z"/><path class="cls-1" d="M198.89,41.51a7.37,7.37,0,0,1-.37.69,3.2,3.2,0,0,1-.46.6,6.78,6.78,0,0,1-.66.6c-.26.21-.57.43-.94.68a3.51,3.51,0,0,1-2.24.29,14.84,14.84,0,0,1-4-1.19c-.17-.06-.49-.16-1-.28l-1.68-.42c-.64-.15-1.33-.29-2.05-.43s-1.41-.27-2.06-.37c-.85-.13-1.59-.22-2.21-.27a10.52,10.52,0,0,0-1.68,0,7.54,7.54,0,0,0-1.46.26,14.9,14.9,0,0,0-1.56.55,2.51,2.51,0,0,1-1.09.24.78.78,0,0,1-.62-.29.72.72,0,0,1,0-.66,2.27,2.27,0,0,1,.67-.87,1.6,1.6,0,0,1,.32-.23,2,2,0,0,1,.43-.17c.19,0,.43-.1.74-.15s.72-.1,1.24-.15l.64-.06.71,0a1.12,1.12,0,0,0,.7-.22,1.91,1.91,0,0,0,.45-.45.67.67,0,0,0,.13-.38c0-.13-.1-.26-.28-.4a1,1,0,0,1-.44-.6.74.74,0,0,1,.19-.55c.12-.13.21-.24.28-.33l.27-.39c.13-.18.15-.34,0-.46a.75.75,0,0,0-.59-.19,7.46,7.46,0,0,0-1.64.1,5.84,5.84,0,0,0-1.14.37c-.83.39-1.25.25-1.27-.4a2,2,0,0,1,.1-.85,1.32,1.32,0,0,1,.55-.52,2.27,2.27,0,0,1,.86-.29,1.55,1.55,0,0,1,.69.14l.27.11a1.29,1.29,0,0,0,.38.06,9.79,9.79,0,0,0,1.76,0,6.92,6.92,0,0,0,.94-.17,1.28,1.28,0,0,1,.9.08.83.83,0,0,1,.45.62,2,2,0,0,1,0,.73.87.87,0,0,1-.39.57,3.58,3.58,0,0,0-.31.23L182,37a.65.65,0,0,0-.19.41.34.34,0,0,0,.17.36c.48.29.74.56.76.83a.86.86,0,0,1-.16.65,3.32,3.32,0,0,1-.25.27c-.08.09-.17.18-.25.28s0,.16.2.17l1.95.18,2.21.24,2.28.27c.76.09,1.48.19,2.19.29a13.19,13.19,0,0,0,1.78.12c.74,0,1.49,0,2.24,0s1.45,0,2.09,0l1.34-.06c.34,0,.55,0,.61,0S199,41.23,198.89,41.51Zm-16.16-8.8a1.91,1.91,0,0,1-.47.17,4.76,4.76,0,0,1-.7.1c-.57.05-1,.09-1.39.1a5.24,5.24,0,0,1-.91,0,1.93,1.93,0,0,1-.64-.18,3.34,3.34,0,0,1-.56-.35,1.24,1.24,0,0,1-.54-.9,1.08,1.08,0,0,1,.44-.92,1.36,1.36,0,0,1,1-.33,1.49,1.49,0,0,1,.92.5,1.65,1.65,0,0,0,.3.22l.55.3.66.32A4.54,4.54,0,0,0,182,32a2.21,2.21,0,0,1,.83.44C182.9,32.53,182.87,32.63,182.73,32.71Zm13.08-.45a.65.65,0,0,1-.33.59,2,2,0,0,1-1.32.23L193,33,191.73,33h-.11s0,.06.07.14a1.36,1.36,0,0,1,.13.75,4.09,4.09,0,0,1-.16.82,5.34,5.34,0,0,1-.3.88c-.12.27-.24.52-.38.77a.74.74,0,0,0-.12.3c0,.07.07.15.2.23.42.3.86.6,1.33.91s.94.61,1.42.89a2.65,2.65,0,0,1,.89.81.52.52,0,0,1,0,.69,2.19,2.19,0,0,1-.36.3.53.53,0,0,1-.4.06,2,2,0,0,1-.63-.24c-.26-.13-.6-.32-1-.57-.84-.48-1.59-.94-2.22-1.38a.65.65,0,0,0-.3-.12.58.58,0,0,0-.3.17,3.76,3.76,0,0,1-.86.57,9.23,9.23,0,0,1-1.14.48,9.41,9.41,0,0,1-2.5.59c-.52,0-.85-.11-1-.36s-.25-.56-.19-.69.24-.21.54-.26a9.59,9.59,0,0,0,2-.55,4.48,4.48,0,0,0,1.5-1,.39.39,0,0,0,.11-.26c0-.11-.08-.23-.26-.37a5.13,5.13,0,0,0-.44-.32l-.52-.34-.49-.31a2.15,2.15,0,0,1-.3-.23,1,1,0,0,1-.19-.35,1.4,1.4,0,0,1-.06-.41,1,1,0,0,1,.08-.39.54.54,0,0,1,.25-.27,1.58,1.58,0,0,1,.46-.16.83.83,0,0,1,.44,0,2.33,2.33,0,0,1,.51.27,7.53,7.53,0,0,1,.71.53l.39.3.44.38a.46.46,0,0,0,.21.12c.06,0,.11,0,.16-.12a5.25,5.25,0,0,0,.56-1.23,1.47,1.47,0,0,0,0-.82.45.45,0,0,0-.47-.28h-.47l-.51,0-1.07.09q-.6.06-1.14.15l-1,.17-.57.14a2.52,2.52,0,0,1-1,.32.57.57,0,0,1-.42-.22.7.7,0,0,1-.08-.53,3,3,0,0,1,.74-1,1.28,1.28,0,0,1,.81-.45,1.47,1.47,0,0,1,.78.1.83.83,0,0,0,.43.1,6.27,6.27,0,0,0,.75-.05,5.33,5.33,0,0,1,.53-.07,2.71,2.71,0,0,1,.57,0c.17,0,.24-.08.22-.25a3,3,0,0,0-.07-.54,3.15,3.15,0,0,0-.13-.41.92.92,0,0,1,.16-.9,1.29,1.29,0,0,1,1.07-.28,2,2,0,0,1,1.75,1,3.65,3.65,0,0,1,.22,1.15c0,.12.08.17.23.17.43,0,.9,0,1.41,0l1.59.06.86.05a1.32,1.32,0,0,1,.46.1.37.37,0,0,1,.2.19A1,1,0,0,1,195.81,32.26Z"/><path class="cls-1" d="M208.34,30.76a3.83,3.83,0,0,1-.81,1,7.05,7.05,0,0,1-1.12.86A.92.92,0,0,0,206,33a2.32,2.32,0,0,0-.06.66V36.8c0,.61,0,1.29,0,2.06s0,1.65,0,2.65a3.79,3.79,0,0,1-.25,1.84,1.55,1.55,0,0,1-1,.73,2.52,2.52,0,0,1-.63.15.41.41,0,0,1-.38-.12.87.87,0,0,1-.17-.51,6.54,6.54,0,0,1,0-1c0-.56,0-1.18,0-1.86s0-1.37.06-2.09.05-1.42.07-2.13,0-1.38.07-2c0-.28,0-.45-.08-.51s-.23-.06-.48,0l-.55.11-.52.09a1.48,1.48,0,0,1-1.32-.35,3.27,3.27,0,0,1-.8-1.6c-.09-.23-.09-.39,0-.46a.83.83,0,0,1,.55-.12,7.38,7.38,0,0,0,1.12-.12c.48-.08,1-.2,1.66-.34s1.31-.31,2-.51,1.48-.43,2.25-.68c.33-.1.56-.07.69.07S208.5,30.43,208.34,30.76Zm16.07,5.6a6.06,6.06,0,0,1-.7,1.09,2.35,2.35,0,0,1-.75.61,2,2,0,0,1-.87.2,3.8,3.8,0,0,1-1.08-.18,15.07,15.07,0,0,0-1.75-.33c-.77-.11-1.55-.2-2.35-.27-.27,0-.43,0-.5,0s-.09.22-.07.49,0,.39,0,.57,0,.36,0,.53c.05.77.07,1.52.06,2.26a15.36,15.36,0,0,1-.08,1.66c0,.39-.1.69-.13.9a1.08,1.08,0,0,1-.17.49.76.76,0,0,1-.33.23,2.05,2.05,0,0,1-.57.06c-.41,0-.66-.07-.75-.25a3.53,3.53,0,0,1-.25-1.15,5.28,5.28,0,0,1-.05-.64c0-.31,0-.65,0-1s0-.77,0-1.18V39.36c0-.23,0-.47,0-.7a6,6,0,0,1,0-.73c0-.25,0-.4-.09-.47a.67.67,0,0,0-.46-.08,32.87,32.87,0,0,0-3.49.4,10.72,10.72,0,0,0-2.18.58,1.92,1.92,0,0,1-.94.25.68.68,0,0,1-.47-.43,1,1,0,0,1,0-.85,2,2,0,0,1,.65-.82A2.09,2.09,0,0,1,208,36a1.87,1.87,0,0,1,.88.15,4.68,4.68,0,0,0,.59.13,2.58,2.58,0,0,0,.68,0c.27,0,.71-.07,1.32-.1l1.91-.1a.8.8,0,0,0,.57-.21,1.48,1.48,0,0,0,.15-.82v-.36a3.53,3.53,0,0,0,0-.36.64.64,0,0,0-.12-.45.71.71,0,0,0-.51-.13h-1l-1,0a1.62,1.62,0,0,0-.63.17,4.66,4.66,0,0,0-.46.31,3.83,3.83,0,0,1-.55.42,2,2,0,0,1-.55.25,2.32,2.32,0,0,1-1.13.22,1.51,1.51,0,0,1-.82-.44.31.31,0,0,1-.14-.34.53.53,0,0,1,.31-.36,8.69,8.69,0,0,0,1.7-1.28,6.65,6.65,0,0,0,1.22-1.6,2.94,2.94,0,0,1,.73-1,.74.74,0,0,1,.65-.06,1.08,1.08,0,0,1,.73.69,1.8,1.8,0,0,1-.08,1.13c-.08.19-.1.31,0,.37s.21.08.48.06h.38a3,3,0,0,0,.41,0,.36.36,0,0,0,.28-.14.88.88,0,0,0,.05-.49c0-.28,0-.52,0-.73a2.86,2.86,0,0,0,0-.44,6.11,6.11,0,0,1-.07-.84.73.73,0,0,1,.11-.46.48.48,0,0,1,.39-.16,3.4,3.4,0,0,1,.75.08,3.12,3.12,0,0,1,.77.29,1.19,1.19,0,0,1,.41.39,1,1,0,0,1,.14.55q0,.33,0,.75c0,.08,0,.18,0,.29s0,.22,0,.33,0,.38,0,.44a1,1,0,0,0,.53.09l1.72.06q.86,0,1.38.06a.83.83,0,0,1,.44.18.7.7,0,0,1,.11.45.64.64,0,0,1-.14.39.71.71,0,0,1-.38.16c-.22,0-.56.07-1,.1s-1.17,0-2.14,0c-.28,0-.46.08-.54.2a.85.85,0,0,0-.1.57v.6a1.5,1.5,0,0,0,.12.72.57.57,0,0,0,.5.18h3.81l1.84,0,1.5,0C224.44,36,224.54,36.13,224.41,36.36Z"/><path class="cls-1" d="M234.71,34.93a.36.36,0,0,0-.23.14,4.37,4.37,0,0,0-.2.69,15.78,15.78,0,0,1-.47,2.06,17.23,17.23,0,0,1-.6,1.74.42.42,0,0,0,0,.27.48.48,0,0,0,.27.15,3.26,3.26,0,0,0,.56.23l.64.22a1.34,1.34,0,0,1,.76.62.94.94,0,0,1,.08.78,1.77,1.77,0,0,1,.71.28,3.51,3.51,0,0,0,1.61.47,2.72,2.72,0,0,0,1.46-.25,1.34,1.34,0,0,0,.52-.61,3.94,3.94,0,0,0,.37-1,9.42,9.42,0,0,0,.19-1.3,13.84,13.84,0,0,0,0-1.44,2,2,0,0,0-.13-.79c-.06-.11-.25-.15-.57-.14a11.47,11.47,0,0,0-2.07.29,8.24,8.24,0,0,0-1.83.66c-.53.27-.88.32-1,.14s-.08-.61.25-1.31a1.81,1.81,0,0,1,.65-.84,1.2,1.2,0,0,1,.85-.06A2.85,2.85,0,0,0,237,36a2.15,2.15,0,0,0,.51,0l1,0,1,0c.24,0,.37,0,.41-.1s0-.17-.11-.35a3.54,3.54,0,0,0-1.34-1.3c-.39-.22-.57-.41-.54-.59s.31-.28.86-.31a2.38,2.38,0,0,1,.72.06,3.57,3.57,0,0,1,.88.31.64.64,0,0,0,.39.1,1.06,1.06,0,0,0,.39-.3,6.8,6.8,0,0,0,.5-.57c.14-.2.31-.44.5-.73s.16-.29.13-.38-.18-.17-.46-.24a5.89,5.89,0,0,0-1-.13,7.31,7.31,0,0,0-1.21.07,8,8,0,0,0-1.29.3,5.87,5.87,0,0,0-1.22.56,1.68,1.68,0,0,1-.61.22.52.52,0,0,1-.44-.17c-.33-.32-.31-.77.08-1.35a2.39,2.39,0,0,1,.69-.76.74.74,0,0,1,.66-.07,1.72,1.72,0,0,0,1.12,0,5.71,5.71,0,0,1,1.76-.31,11.15,11.15,0,0,1,2.07.11A2.47,2.47,0,0,0,243,30a1.07,1.07,0,0,0,.45-.11,1.63,1.63,0,0,1,.93,0,1.53,1.53,0,0,1,.82.63c.23.3.32.55.26.74a2.22,2.22,0,0,1-.61.78c-.52.47-1,.88-1.41,1.22a14.53,14.53,0,0,1-1.29.91,1.24,1.24,0,0,0-.46.35c0,.08,0,.19.08.32a1.3,1.3,0,0,1,.18.23l.13.22a.91.91,0,0,0,.18.29.6.6,0,0,0,.21.14,1,1,0,0,0,.33,0h.5c.3,0,.65,0,1,0s.77,0,1.15,0l1,.06.73.06,1.05.13.75.07c.18,0,.3.06.34.13s0,.22-.12.47a2.2,2.2,0,0,1-.43.65,3.86,3.86,0,0,1-.71.63,2.24,2.24,0,0,1-2,.2c-.54-.15-1-.29-1.47-.43s-.86-.25-1.26-.35-.51-.08-.59,0a1.59,1.59,0,0,0-.09.78,13.54,13.54,0,0,1,0,1.42c0,.5-.06,1-.12,1.43s-.13.85-.21,1.21a3.52,3.52,0,0,1-.28.81,3,3,0,0,1-1.47,1.38,3.71,3.71,0,0,1-1.92.24,4.46,4.46,0,0,1-1.87-.73,4,4,0,0,1-1.37-1.51,1.61,1.61,0,0,1-.14-.35.6.6,0,0,1-.61.2,4.64,4.64,0,0,1-.89-.3c-.24-.08-.47-.17-.69-.26s-.43-.18-.62-.27a.71.71,0,0,0-.32-.06.39.39,0,0,0-.25.21,4.47,4.47,0,0,1-1.48,1.18,9.49,9.49,0,0,1-1.87.67,2.2,2.2,0,0,1-2.2-.57q-.6-.53-.54-.81c0-.19.45-.33,1.22-.42a6.32,6.32,0,0,0,1.57-.38,5.21,5.21,0,0,0,1.32-.72c.14-.11.21-.19.22-.23s0-.1-.11-.17l-.48-.38-.52-.44a3,3,0,0,1-.49-.54,1.53,1.53,0,0,1-.26-.61,3,3,0,0,1-.06-.83,9.65,9.65,0,0,1,.16-1.17c0-.2,0-.28-.23-.23l-.8.23-.82.25a2.12,2.12,0,0,1-.87.14c-.11,0-.19-.22-.24-.52a1.69,1.69,0,0,1,.07-.72,2,2,0,0,1,.36-.73,1.26,1.26,0,0,1,.62-.45.94.94,0,0,1,.58,0,1.57,1.57,0,0,0,.55.15,3,3,0,0,0,.65,0,.94.94,0,0,0,.45-.14.61.61,0,0,0,.15-.36c.15-.68.3-1.3.46-1.86s.36-1.2.59-1.92a1.21,1.21,0,0,1,.4-.61,1.55,1.55,0,0,1,.59-.29,1.27,1.27,0,0,1,.64,0,1.51,1.51,0,0,1,.55.28,1.18,1.18,0,0,1,.47.73,1.17,1.17,0,0,1-.22.87,9.09,9.09,0,0,0-.62,1.12c-.19.41-.4.93-.63,1.58a.6.6,0,0,0,0,.25s.08,0,.21,0a5.14,5.14,0,0,1,.55-.06,3.45,3.45,0,0,0,.55-.07q.18,0,.21-.06s0-.09.07-.19a1.27,1.27,0,0,1,.38-.82.9.9,0,0,1,.77,0,1.35,1.35,0,0,1,.46.28,1,1,0,0,1,.21.42.26.26,0,0,0,.25.15l.34,0,.31,0a.9.9,0,0,1,.57.1.43.43,0,0,1,.11.43.93.93,0,0,1-.38.55A2,2,0,0,1,234.71,34.93Zm-4.23,3.23a2.26,2.26,0,0,0,.37.27,2.19,2.19,0,0,1,.36.3.52.52,0,0,0,.25.13s.1-.07.15-.2a9,9,0,0,0,.59-1.45,10.17,10.17,0,0,0,.36-1.75c.05-.2,0-.28-.28-.23l-.83.12-.79.11a.28.28,0,0,0-.18.11,4.13,4.13,0,0,0-.17.56,3.63,3.63,0,0,0-.15,1.25A1.09,1.09,0,0,0,230.48,38.16Z"/><path class="cls-1" d="M273.84,35a5.56,5.56,0,0,1-.77,1,6,6,0,0,1-1.18.82,3,3,0,0,1-1.54.12,23.29,23.29,0,0,1-3.49-.77,3.4,3.4,0,0,0-.44-.07l-.71-.05-1.12,0-1.68-.08a3,3,0,0,0-.69,0,.4.4,0,0,0-.24.17l-.21.33a2.73,2.73,0,0,1-.21.3c-.08.12-.09.2,0,.25a.39.39,0,0,0,.23.07c1.25,0,2.2,0,2.84.1s1,.1,1.19.13a1.79,1.79,0,0,0,.56.09.43.43,0,0,0,.29-.12,1.37,1.37,0,0,1,.86-.37A1.78,1.78,0,0,1,269.16,38a3.3,3.3,0,0,1-.07,1.29,3.88,3.88,0,0,0-.09.7c0,.32-.05.65-.06,1s0,.7,0,1a3.79,3.79,0,0,0,0,.7,2.38,2.38,0,0,1,0,1.08,1.26,1.26,0,0,1-.69.7,1.37,1.37,0,0,1-1.33,0,2.75,2.75,0,0,0-.51-.17,5.88,5.88,0,0,0-1-.11c-.48,0-1.13,0-2,0s-1.93,0-3.29.05q-.37,0-.48.15a1.15,1.15,0,0,1-1,.42,1.18,1.18,0,0,1-1-.4,1.47,1.47,0,0,1-.19-1c.07-.53.12-1.09.16-1.66a14.94,14.94,0,0,0,0-1.64c0-.23-.08-.32-.23-.25l-.37.17-.48.22-.49.21-.41.17a9.79,9.79,0,0,1-3.76.83c-.94,0-1.55-.34-1.81-.88a.74.74,0,0,1-.12-.47c0-.12.16-.19.39-.23l.64-.07c.24,0,.49-.08.75-.13s.52-.1.79-.17l.72-.2c1-.3,1.83-.58,2.54-.84a17.73,17.73,0,0,0,1.81-.76,6.74,6.74,0,0,0,1.23-.76,3.8,3.8,0,0,0,.75-.82c.11-.16.08-.25-.11-.25l-1.38.14c-.53.06-1.08.14-1.67.25s-1.17.24-1.77.4-1.18.35-1.75.56a1,1,0,0,1-.89,0c-.19-.12-.23-.38-.11-.76a2.32,2.32,0,0,1,.54-.86,2.5,2.5,0,0,1,.91-.67,2.07,2.07,0,0,1,1.3-.12,5.55,5.55,0,0,0,1,.11,3.3,3.3,0,0,0,.75,0c.28-.05.72-.09,1.33-.13l2.19-.12c.12,0,.2,0,.24-.08a2.27,2.27,0,0,0,.16-.44.54.54,0,0,0,0-.38.24.24,0,0,0-.21-.1c-1.13,0-2.06.1-2.77.19a13.35,13.35,0,0,0-2,.39c-.4.1-.67.07-.8-.1s-.08-.32.06-.56a1.38,1.38,0,0,1,.56-.54,4.58,4.58,0,0,1,1-.4,1,1,0,0,1,.51,0,2.22,2.22,0,0,0,.88.1c.33,0,.73,0,1.19-.07l1.49,0a.39.39,0,0,0,.23-.06.41.41,0,0,0,.12-.29c0-.17,0-.27,0-.31a.31.31,0,0,0-.21-.07c-1,.05-1.87.1-2.74.13s-1.56.05-2,.05-.72,0-.95,0a1.46,1.46,0,0,1-.54-.11.41.41,0,0,1-.23-.24,1.11,1.11,0,0,1-.05-.4c0-.23.12-.4.43-.51a2.53,2.53,0,0,1,1.27,0,14.08,14.08,0,0,0,2.66.17,27.58,27.58,0,0,0,3.11-.22,26.68,26.68,0,0,0,3-.54,12,12,0,0,0,2.33-.76,2,2,0,0,1,.84-.24,2,2,0,0,1,.88.41c.45.3.65.55.61.75s-.32.4-.83.6a2.17,2.17,0,0,1-.5.13l-.92.17-1,.2-.88.15-.59.07-1,.06a.21.21,0,0,0-.18.07.73.73,0,0,0-.09.33c0,.28.08.42.27.42l1.47,0c.52,0,1,0,1.48,0s.76,0,1,0h.84a.7.7,0,0,1,.5.12.51.51,0,0,1,.07.38.43.43,0,0,1-.19.37,2.46,2.46,0,0,1-.78.13,4.55,4.55,0,0,1-.53.05l-.77,0-.88,0h-2.28a.43.43,0,0,0-.28.07.86.86,0,0,0-.17.35.66.66,0,0,0,0,.43.2.2,0,0,0,.19.1l1.88,0c.68,0,1.33,0,2,0h4.57l1.45,0,.71,0c.23,0,.38,0,.45.07S274,34.78,273.84,35Zm-7.13,7.2a.25.25,0,0,0-.07-.21.57.57,0,0,0-.33-.07l-1.4,0h-3.18l-1.59,0c-.22,0-.33.13-.33.38s.12.57.35.57h1.55l1.54,0,1.34,0h.94a1.91,1.91,0,0,0,1-.15A.5.5,0,0,0,266.71,42.21Zm0-1.73c0-.26-.1-.4-.3-.4-.89,0-1.88,0-3,0l-3.19.08c-.25,0-.37.1-.37.3s.1.35.32.35c.9,0,1.87,0,2.93,0s2.12.06,3.22.11a.46.46,0,0,0,.29-.07C266.66,40.81,266.69,40.68,266.69,40.48Zm0-1.85a.25.25,0,0,0-.15-.26,2.71,2.71,0,0,0-.75-.06c-.85,0-1.74,0-2.67,0l-2.78,0a.52.52,0,0,0-.35.1.54.54,0,0,0-.1.38q0,.3.33.3c.95,0,2,0,3.06,0s2.11,0,3.06,0a.34.34,0,0,0,.28-.1A.68.68,0,0,0,266.66,38.63Z"/></svg>