<svg id="レイヤー_1" data-name="レイヤー 1" xmlns="http://www.w3.org/2000/svg" viewBox="0 0 253.04 81.96"><defs><style>.cls-1{fill:blue;}</style></defs><title>アートボード 4@1</title><path class="cls-1" d="M3.6,16.1H.54V10H3.6V8.36c0-2.86.73-5,2.09-6.32a8.1,8.1,0,0,1,6-2,16.29,16.29,0,0,1,5.25.73V6.86a9.33,9.33,0,0,0-3.35-.64c-1.7,0-2.68.88-2.68,2.83v1h6v6H11V35.84H3.6Z"/><path class="cls-1" d="M21.2,26.65V9.77h7.39V24.31c0,3.51,1.65,5.31,4.47,5.31s4.62-1.8,4.62-5.31V9.77h7.4V35.84h-7.4v-3.7c-1.7,2.19-3.89,4.19-7.63,4.19C24.46,36.33,21.2,32.63,21.2,26.65Z"/><path class="cls-1" d="M50.57,9.77H58v3.7c1.7-2.19,3.94-4.18,7.68-4.18A7.82,7.82,0,0,1,73,13.42a10.73,10.73,0,0,1,8.55-4.13c5.5,0,8.81,3.31,8.81,9.58v17H83V21.3c0-3.5-1.56-5.3-4.33-5.3s-4.48,1.8-4.48,5.3V35.84H66.76V21.3c0-3.5-1.55-5.3-4.33-5.3S58,17.8,58,21.3V35.84H50.57Z"/><path class="cls-1" d="M95.79.34h7.78V6.91H95.79ZM96,9.77h7.39V35.84H96Z"/><path class="cls-1" d="M109,.34h7.39V19.26L125,9.77h8.85L123.94,20l10.26,15.8h-8.46l-6.81-10.65-2.58,2.72v7.93H109Z"/><path class="cls-1" d="M133.57,23v-.09c0-7.49,6-13.57,14.15-13.57s14.05,6,14.05,13.47v.1c0,7.49-6,13.56-14.15,13.56S133.57,30.44,133.57,23Zm20.91,0v-.09a6.92,6.92,0,0,0-6.86-7.2c-4.23,0-6.76,3.26-6.76,7.1v.1a6.92,6.92,0,0,0,6.86,7.19C152,30.05,154.48,26.8,154.48,23Z"/><path class="cls-1" d="M2,80.17l2.48-5.35a6.79,6.79,0,0,0,3.16,1,2.47,2.47,0,0,0,2.58-1.7L0,48H7.83l5.93,17.75L19.45,48h7.69l-10,26.7C15.12,80,13,82,8.56,82A12.32,12.32,0,0,1,2,80.17Z"/><path class="cls-1" d="M28.69,66.55v-.1c0-5.69,4.33-8.31,10.51-8.31a18.37,18.37,0,0,1,6.37,1.07v-.44c0-3.07-1.9-4.77-5.6-4.77a19.23,19.23,0,0,0-7.19,1.41l-1.85-5.64A23.06,23.06,0,0,1,41,47.68c4,0,7,1.07,8.81,2.92s2.82,4.81,2.82,8.31V74H45.52V71.22a10,10,0,0,1-7.88,3.3C32.73,74.52,28.69,71.7,28.69,66.55Zm17-1.7V63.53a11.47,11.47,0,0,0-4.71-1c-3.16,0-5.11,1.27-5.11,3.6v.1c0,2,1.65,3.16,4,3.16C43.33,69.42,45.66,67.52,45.66,64.85Z"/><path class="cls-1" d="M57.92,48h7.39v3.7c1.7-2.19,3.94-4.18,7.68-4.18a7.79,7.79,0,0,1,7.34,4.13,10.75,10.75,0,0,1,8.56-4.13c5.5,0,8.8,3.3,8.8,9.58V74H90.3V59.5c0-3.5-1.55-5.3-4.33-5.3S81.5,56,81.5,59.5V74H74.11V59.5c0-3.5-1.56-5.3-4.33-5.3s-4.47,1.8-4.47,5.3V74H57.92Z"/><path class="cls-1" d="M101.38,66.55v-.1c0-5.69,4.33-8.31,10.51-8.31a18.37,18.37,0,0,1,6.37,1.07v-.44c0-3.07-1.9-4.77-5.59-4.77a19.28,19.28,0,0,0-7.2,1.41l-1.85-5.64a23.07,23.07,0,0,1,10.12-2.09c4,0,7,1.07,8.8,2.92s2.82,4.81,2.82,8.31V74h-7.15V71.22a10,10,0,0,1-7.88,3.3C105.42,74.52,101.38,71.7,101.38,66.55Zm17-1.7V63.53a11.55,11.55,0,0,0-4.72-1c-3.16,0-5.11,1.27-5.11,3.6v.1c0,2,1.66,3.16,4,3.16C116,69.42,118.36,67.52,118.36,64.85Z"/><path class="cls-1" d="M130.61,48H138v3.7c1.7-2.19,3.94-4.18,7.68-4.18A7.8,7.8,0,0,1,153,51.62a10.73,10.73,0,0,1,8.55-4.13c5.5,0,8.81,3.3,8.81,9.58V74H163V59.5c0-3.5-1.56-5.3-4.33-5.3s-4.48,1.8-4.48,5.3V74H146.8V59.5c0-3.5-1.55-5.3-4.33-5.3S138,56,138,59.5V74h-7.39Z"/><path class="cls-1" d="M174.32,61.15v-.1c0-7.49,6-13.56,14.15-13.56s14.06,6,14.06,13.47v.09c0,7.49-6,13.57-14.16,13.57S174.32,68.64,174.32,61.15Zm20.91,0v-.1a6.92,6.92,0,0,0-6.86-7.19c-4.23,0-6.76,3.25-6.76,7.1v.09a6.93,6.93,0,0,0,6.86,7.2C192.7,68.25,195.23,65,195.23,61.15Z"/><path class="cls-1" d="M208.11,66.65V54.29H205V48h3.11V41.31h7.39V48h6.13v6.32H215.5V65.43c0,1.7.73,2.53,2.39,2.53a7.57,7.57,0,0,0,3.65-.92V73a11,11,0,0,1-5.84,1.51C211.18,74.48,208.11,72.68,208.11,66.65Z"/><path class="cls-1" d="M224.84,61.15v-.1c0-7.49,6-13.56,14.15-13.56s14,6,14,13.47v.09c0,7.49-6,13.57-14.15,13.57S224.84,68.64,224.84,61.15Zm20.91,0v-.1a6.92,6.92,0,0,0-6.86-7.19c-4.23,0-6.76,3.25-6.76,7.1v.09a6.93,6.93,0,0,0,6.86,7.2C243.22,68.25,245.75,65,245.75,61.15Z"/></svg>